<?xml version="1.0" encoding="UTF-8" standalone="no"?>
<!DOCTYPE svg PUBLIC "-//W3C//DTD SVG 1.1//EN" "http://www.w3.org/Graphics/SVG/1.1/DTD/svg11.dtd">
<svg width="100%" height="100%" viewBox="0 0 1387 900" version="1.1" xmlns="http://www.w3.org/2000/svg" xmlns:xlink="http://www.w3.org/1999/xlink" xml:space="preserve" xmlns:serif="http://www.serif.com/" style="fill-rule:evenodd;clip-rule:evenodd;stroke-linejoin:round;stroke-miterlimit:2;">
    <g transform="matrix(1,0,0,1,-385.001,-2424.59)">
        <g id="Artboard1" transform="matrix(2.54902e-17,0.416286,-0.361074,2.21094e-17,1771.53,2424.59)">
            <rect x="0" y="0" width="2160" height="3840" style="fill:none;"/>
            <g id="html" transform="matrix(2.04511e-16,-3.85063,3.33992,2.35783e-16,-52362.1,-5120.89)">
                <g transform="matrix(1.75355,0,0,0.739123,-3502.98,4185.74)">
                    <rect x="901.415" y="15902.5" width="184.025" height="165.996" style="fill:rgb(147,179,218);"/>
                </g>
                <g transform="matrix(1,0,0,1,-2776.64,39.4662)">
                    <g transform="matrix(100,0,0,100,1152.93,15997.7)">
                    </g>
                    <text x="873.127px" y="15997.7px" style="font-family:'Lato-Bold', 'Lato', sans-serif;font-weight:700;font-size:100px;fill:white;">HTML</text>
                </g>
            </g>
            <g id="css" transform="matrix(2.04511e-16,-3.85063,3.33992,2.35783e-16,-52362.1,-4032.67)">
                <g transform="matrix(1.31789,0,0,0.739123,-3070.19,4185.74)">
                    <rect x="901.415" y="15902.5" width="184.025" height="165.996" style="fill:rgb(180,222,234);"/>
                </g>
                <g transform="matrix(1,0,0,1,-2721.31,39.4662)">
                    <g transform="matrix(100,0,0,100,1047.48,15997.7)">
                    </g>
                    <text x="873.127px" y="15997.7px" style="font-family:'Lato-Bold', 'Lato', sans-serif;font-weight:700;font-size:100px;fill:rgb(15,36,65);">CSS</text>
                </g>
            </g>
            <g id="css1" serif:id="css" transform="matrix(2.04511e-16,-3.85063,3.33992,2.35783e-16,-51952.4,-4475.03)">
                <g transform="matrix(3.03097,0,0,0.739123,-4614.38,4185.74)">
                    <rect x="901.415" y="15902.5" width="184.025" height="165.996" style="fill:rgb(86,124,171);"/>
                </g>
                <g transform="matrix(1,0,0,1,-2721.31,39.4662)">
                    <g transform="matrix(100,0,0,100,1368.68,15997.7)">
                    </g>
                    <text x="873.127px" y="15997.7px" style="font-family:'Lato-Bold', 'Lato', sans-serif;font-weight:700;font-size:100px;fill:white;">W<tspan x="975.727px " y="15997.7px ">o</tspan>rdpress</text>
                </g>
            </g>
            <g id="java" transform="matrix(2.04511e-16,-3.85063,3.33992,2.35783e-16,-52771.9,-5048.19)">
                <g transform="matrix(2.86625,0,0,0.739123,-4608.37,4185.74)">
                    <rect x="901.415" y="15902.5" width="184.025" height="165.996" style="fill:rgb(147,179,218);"/>
                </g>
                <g transform="matrix(1,0,0,1,-2866.39,32.0162)">
                    <g transform="matrix(100,0,0,100,1337.63,15997.7)">
                    </g>
                    <text x="873.127px" y="15997.7px" style="font-family:'Lato-Bold', 'Lato', sans-serif;font-weight:700;font-size:100px;fill:rgb(15,36,65);">Ja<tspan x="967.377px " y="15997.7px ">v</tspan>aScript</text>
                </g>
            </g>
        </g>
    </g>
</svg>
