<?xml version="1.0" encoding="UTF-8" standalone="no"?>
<!DOCTYPE svg PUBLIC "-//W3C//DTD SVG 1.1//EN" "http://www.w3.org/Graphics/SVG/1.1/DTD/svg11.dtd">
<svg width="100%" height="100%" viewBox="0 0 1511 1153" version="1.1" xmlns="http://www.w3.org/2000/svg" xmlns:xlink="http://www.w3.org/1999/xlink" xml:space="preserve" xmlns:serif="http://www.serif.com/" style="fill-rule:evenodd;clip-rule:evenodd;stroke-linejoin:round;stroke-miterlimit:2;">
    <g id="Artboard1" transform="matrix(3.266e-17,0.533378,-0.393406,2.40892e-17,1510.68,0)">
        <rect x="0" y="0" width="2160" height="3840" style="fill:none;"/>
        <g transform="matrix(2.6214,8.52999e-32,-1.39164e-32,2.71445,-1751.11,-3293.77)">
            <g transform="matrix(7.36038e-16,-15.7386,12.0204,9.63708e-16,-6420.04,37475)">
                <path d="M2237.12,646.742C2247.01,647.498 2252.77,643.785 2255.12,636.369L2247.02,628.119C2238.03,631.471 2235.44,638.013 2237.12,646.742Z" style="fill:rgb(201,35,35);"/>
            </g>
            <g transform="matrix(4.47436e-16,-9.56745,7.30719,5.85837e-16,-3424.8,23598.4)">
                <path d="M2237.12,646.742C2247.01,647.498 2252.77,643.785 2255.12,636.369L2247.02,628.119C2238.03,631.471 2235.44,638.013 2237.12,646.742Z" style="fill:rgb(255,94,36);"/>
            </g>
            <g transform="matrix(4.48087e-16,-9.58136,7.31782,5.86689e-16,-3433.88,23640.8)">
                <path d="M2306.92,576.502C2282.98,575.634 2261.8,590.606 2244,625.037L2259.35,640.192C2293.23,620.899 2309.98,599.363 2306.92,576.502Z" style="fill:rgb(147,179,218);"/>
                <clipPath id="_clip1">
                    <path d="M2306.92,576.502C2282.98,575.634 2261.8,590.606 2244,625.037L2259.35,640.192C2293.23,620.899 2309.98,599.363 2306.92,576.502Z"/>
                </clipPath>
                <g clip-path="url(#_clip1)">
                    <g transform="matrix(0.156052,-0.156052,0.19352,0.19352,1979.57,730.72)">
                        <path d="M1576.27,405.237L1485.78,405.237C1474.99,436.899 1476.08,466.909 1485.78,495.723L1576.27,495.723L1576.27,405.237Z" style="fill:rgb(113,155,206);"/>
                    </g>
                </g>
            </g>
            <g transform="matrix(9.8889e-17,-2.11452,1.61498,1.29477e-16,113.014,4635.12)">
                <circle cx="1368.07" cy="513.814" r="39.518" style="fill:rgb(210,224,240);"/>
            </g>
            <g transform="matrix(5.86274e-16,-12.5362,9.57459,7.6762e-16,-4876.7,30316.3)">
                <path d="M2277.24,627.801L2279.32,638.471L2262.17,652.989L2259.35,639.989L2277.24,627.801Z" style="fill:rgb(85,136,197);"/>
            </g>
            <g transform="matrix(-9.57384,0.156503,0.11953,12.5352,22688.4,-6233.29)">
                <path d="M2276.79,627.807L2279.32,638.471L2262.17,652.989L2258.7,639.797L2276.79,627.807Z" style="fill:rgb(85,136,197);"/>
            </g>
        </g>
    </g>
</svg>
