<?xml version="1.0" encoding="UTF-8" standalone="no"?>
<!DOCTYPE svg PUBLIC "-//W3C//DTD SVG 1.1//EN" "http://www.w3.org/Graphics/SVG/1.1/DTD/svg11.dtd">
<svg width="100%" height="100%" viewBox="0 0 1080 901" version="1.1" xmlns="http://www.w3.org/2000/svg" xmlns:xlink="http://www.w3.org/1999/xlink" xml:space="preserve" xmlns:serif="http://www.serif.com/" style="fill-rule:evenodd;clip-rule:evenodd;stroke-linejoin:round;stroke-miterlimit:2;">
    <g transform="matrix(1.66154,0,0,2.25105,1412.31,2813.82)">
        <rect id="Artboard2" x="-850" y="-1250" width="650" height="400" style="fill:none;"/>
        <g id="Artboard21" serif:id="Artboard2">
            <g transform="matrix(6.40365,0,0,7.68078,2598.61,7168.96)">
                <g transform="matrix(0.48211,0,0,0.296683,-331.05,-1170.03)">
                    <path d="M-243.228,283.812C-243.228,275.742 -249.779,269.191 -257.849,269.191L-287.091,269.191C-295.161,269.191 -301.712,275.742 -301.712,283.812L-301.712,313.054C-301.712,321.124 -295.161,327.675 -287.091,327.675L-257.849,327.675C-249.779,327.675 -243.228,321.124 -243.228,313.054L-243.228,283.812Z" style="fill:rgb(15,36,65);"/>
                </g>
                <g transform="matrix(1.2037,0,0,0.740741,-533.102,-1120.38)">
                    <path d="M63.267,46.999C62.712,46.999 62.262,47.449 62.262,48.004C62.262,48.559 62.712,49.009 63.267,49.009C63.822,49.009 64.272,48.559 64.272,48.004C64.272,47.449 63.822,46.999 63.267,46.999Z" style="fill:white;fill-rule:nonzero;"/>
                </g>
                <g transform="matrix(1.2037,0,0,0.740741,-533.102,-1120.38)">
                    <path d="M58.799,55.214C57.308,55.214 56.094,54.001 56.094,52.509C56.094,51.018 57.308,49.805 58.799,49.805C60.29,49.805 61.503,51.018 61.503,52.509C61.503,54.001 60.29,55.214 58.799,55.214ZM58.799,48.288C56.471,48.288 54.577,50.181 54.577,52.509C54.577,54.838 56.471,56.732 58.799,56.732C61.127,56.732 63.02,54.838 63.02,52.509C63.02,50.181 61.127,48.288 58.799,48.288Z" style="fill:white;fill-rule:nonzero;"/>
                </g>
                <g transform="matrix(1.2037,0,0,0.740741,-533.102,-1120.38)">
                    <path d="M55.306,45.55C53.356,45.55 51.77,47.137 51.77,49.087L51.77,55.932C51.77,57.882 53.356,59.468 55.306,59.468L62.15,59.468C64.1,59.468 65.687,57.882 65.687,55.932L65.687,49.087C65.687,47.137 64.1,45.55 62.15,45.55L55.306,45.55ZM62.15,61.081L55.306,61.081C52.467,61.081 50.157,58.771 50.157,55.932L50.157,49.087C50.157,46.248 52.467,43.938 55.306,43.938L62.15,43.938C64.99,43.938 67.3,46.248 67.3,49.087L67.3,55.932C67.3,58.771 64.99,61.081 62.15,61.081Z" style="fill:white;fill-rule:nonzero;"/>
                </g>
            </g>
            <g transform="matrix(6.40365,0,0,7.68078,2775.23,6858.53)">
                <g transform="matrix(0.48211,0,0,0.296683,-384.007,-1106.47)">
                    <path d="M-243.228,283.812C-243.228,275.742 -249.779,269.191 -257.849,269.191L-287.091,269.191C-295.161,269.191 -301.712,275.742 -301.712,283.812L-301.712,313.054C-301.712,321.124 -295.161,327.675 -287.091,327.675L-257.849,327.675C-249.779,327.675 -243.228,321.124 -243.228,313.054L-243.228,283.812Z" style="fill:rgb(15,36,65);"/>
                </g>
                <g transform="matrix(1.2037,0,0,0.740741,-535.187,-1120.2)">
                    <path d="M11.543,130.275C12.449,130.275 13.183,131.01 13.183,131.914C13.183,132.818 12.449,133.554 11.543,133.554C10.636,133.554 9.902,132.818 9.902,131.914C9.902,131.01 10.636,130.275 11.543,130.275ZM10.127,134.796L12.959,134.796L12.959,143.892L10.127,143.892L10.127,134.796Z" style="fill:white;fill-rule:nonzero;"/>
                </g>
                <g transform="matrix(1.2037,0,0,0.740741,-535.187,-1120.2)">
                    <path d="M14.733,134.796L17.446,134.796L17.446,136.04L17.482,136.04C17.861,135.324 18.783,134.57 20.16,134.57C23.023,134.57 23.551,136.453 23.551,138.903L23.551,143.892L20.726,143.892L20.726,139.469C20.726,138.414 20.705,137.057 19.256,137.057C17.784,137.057 17.56,138.207 17.56,139.392L17.56,143.892L14.733,143.892L14.733,134.796Z" style="fill:white;fill-rule:nonzero;"/>
                </g>
            </g>
            <g transform="matrix(3.08726,0,0,2.27876,159.705,-1817.75)">
                <path d="M-243.228,283.812C-243.228,275.742 -249.779,269.191 -257.849,269.191L-287.091,269.191C-295.161,269.191 -301.712,275.742 -301.712,283.812L-301.712,313.054C-301.712,321.124 -295.161,327.675 -287.091,327.675L-257.849,327.675C-249.779,327.675 -243.228,321.124 -243.228,313.054L-243.228,283.812Z" style="fill:rgb(15,36,65);"/>
                <clipPath id="_clip1">
                    <path d="M-243.228,283.812C-243.228,275.742 -249.779,269.191 -257.849,269.191L-287.091,269.191C-295.161,269.191 -301.712,275.742 -301.712,283.812L-301.712,313.054C-301.712,321.124 -295.161,327.675 -287.091,327.675L-257.849,327.675C-249.779,327.675 -243.228,321.124 -243.228,313.054L-243.228,283.812Z"/>
                </clipPath>
                <g clip-path="url(#_clip1)">
                    <g transform="matrix(2.06957,0,0,2.06957,-308.797,188.74)">
                        <path d="M21.951,56.737L22.599,52.51L18.543,52.51L18.543,49.768C18.543,48.611 19.11,47.484 20.926,47.484L22.77,47.484L22.77,43.886C22.77,43.886 21.097,43.6 19.497,43.6C16.157,43.6 13.975,45.625 13.975,49.289L13.975,52.51L10.262,52.51L10.262,56.737L13.975,56.737L13.975,66.954C14.719,67.071 15.482,67.132 16.259,67.132C17.036,67.132 17.799,67.071 18.543,66.954L18.543,56.737L21.951,56.737Z" style="fill:white;fill-rule:nonzero;"/>
                    </g>
                </g>
            </g>
        </g>
    </g>
</svg>
