<?xml version="1.0" encoding="UTF-8" standalone="no"?>
<!DOCTYPE svg PUBLIC "-//W3C//DTD SVG 1.1//EN" "http://www.w3.org/Graphics/SVG/1.1/DTD/svg11.dtd">
<svg width="100%" height="100%" viewBox="0 0 2085 1172" version="1.1" xmlns="http://www.w3.org/2000/svg" xmlns:xlink="http://www.w3.org/1999/xlink" xml:space="preserve" xmlns:serif="http://www.serif.com/" style="fill-rule:evenodd;clip-rule:evenodd;stroke-linejoin:round;stroke-miterlimit:2;">
    <g transform="matrix(1,0,0,1,-5950.36,0)">
        <g id="webdesign" transform="matrix(3.32133e-17,0.542414,-0.542907,3.32435e-17,8035.12,0)">
            <rect x="0" y="0" width="2160" height="3840" style="fill:none;"/>
            <g transform="matrix(1.49897,-2.73691e-48,1.60602e-32,1.43391,-306.245,-385.245)">
                <g>
                    <g transform="matrix(8.069e-17,-1.37631,1.31777,8.42747e-17,-158.778,11465.8)">
                        <path d="M7592.72,448.402C7592.72,428.423 7576.5,412.203 7556.53,412.203L7266.94,412.203C7246.96,412.203 7230.74,428.423 7230.74,448.402L7230.74,1054.05C7230.74,1074.03 7246.96,1090.25 7266.94,1090.25L7556.53,1090.25C7576.5,1090.25 7592.72,1074.03 7592.72,1054.05L7592.72,448.402Z" style="fill:rgb(20,29,40);"/>
                    </g>
                    <g transform="matrix(8.069e-17,-1.37631,1.31777,8.42747e-17,-166.158,11473.5)">
                        <path d="M7592.72,448.402C7592.72,428.423 7576.5,412.203 7556.53,412.203L7266.94,412.203C7246.96,412.203 7230.74,428.423 7230.74,448.402L7230.74,1054.05C7230.74,1074.03 7246.96,1090.25 7266.94,1090.25L7556.53,1090.25C7576.5,1090.25 7592.72,1074.03 7592.72,1054.05L7592.72,448.402Z" style="fill:rgb(31,44,61);"/>
                    </g>
                    <g transform="matrix(7.69521e-17,-1.31255,1.2754,8.15652e-17,-134.33,11001)">
                        <path d="M7592.72,447.872C7592.72,428.186 7576.5,412.203 7556.53,412.203L7266.94,412.203C7246.96,412.203 7230.74,428.186 7230.74,447.872L7230.74,1054.58C7230.74,1074.27 7246.96,1090.25 7266.94,1090.25L7556.53,1090.25C7576.5,1090.25 7592.72,1074.27 7592.72,1054.58L7592.72,447.872Z" style="fill:rgb(220,228,237);"/>
                    </g>
                </g>
                <g transform="matrix(1.86033e-17,-0.317313,0.303816,1.94298e-17,436.247,3730.07)">
                    <text x="7383.9px" y="503.448px" style="font-family:'Lato-Bold', 'Lato', sans-serif;font-weight:700;font-size:234.617px;">Mobile</text>
                    <g transform="matrix(234.617,0,0,234.617,8320.84,697.762)">
                    </g>
                    <text x="7184.82px" y="697.762px" style="font-family:'Lato-Bold', 'Lato', sans-serif;font-weight:700;font-size:234.617px;">responsiv<tspan x="8195.44px " y="697.762px ">e</tspan></text>
                </g>
                <g transform="matrix(1.86033e-17,-0.317313,0.303816,1.94298e-17,432.557,3733.93)">
                    <text x="7383.9px" y="503.448px" style="font-family:'Lato-Bold', 'Lato', sans-serif;font-weight:700;font-size:234.617px;fill:rgb(15,36,65);">Mobile</text>
                    <g transform="matrix(234.617,0,0,234.617,8320.84,697.762)">
                    </g>
                    <text x="7184.82px" y="697.762px" style="font-family:'Lato-Bold', 'Lato', sans-serif;font-weight:700;font-size:234.617px;fill:rgb(15,36,65);">responsiv<tspan x="8195.44px " y="697.762px ">e</tspan></text>
                </g>
                <g transform="matrix(1.35018e-16,-2.30296,2.4222,1.54906e-16,-417.268,18963.2)">
                    <path d="M7723.82,333.854C7723.82,326.776 7643.39,326.776 7643.39,333.854C7643.39,340.932 7649.14,349.104 7656.91,349.104L7709.73,349.104C7717.51,349.104 7723.82,340.932 7723.82,333.854Z" style="fill:rgb(31,44,61);"/>
                </g>
                <g transform="matrix(1.38451e-16,-2.36152,2.26107,1.44601e-16,-351.473,19397.4)">
                    <circle cx="7653.35" cy="335.159" r="4.025" style="fill:rgb(20,29,40);"/>
                </g>
                <g transform="matrix(7.53105e-17,-1.28455,0.498761,3.18971e-17,228.083,10615.7)">
                    <path d="M7310.87,312.648C7310.87,311.621 7310.53,310.788 7310.11,310.788L7243.61,310.788C7243.2,310.788 7242.86,311.621 7242.86,312.648L7242.86,316.368C7242.86,317.395 7243.2,318.229 7243.61,318.229L7310.11,318.229C7310.53,318.229 7310.87,317.395 7310.87,316.368L7310.87,312.648Z" style="fill:rgb(20,29,40);"/>
                </g>
            </g>
            <g transform="matrix(1.49897,-2.73691e-48,1.60602e-32,1.43391,-306.245,-385.245)">
                <g transform="matrix(8.10666e-17,-1.38273,1.22991,7.86563e-17,-17.9545,11212.2)">
                    <path d="M7306.67,1070.5C7306.67,1043.37 7286.21,1021.35 7261.02,1021.35L6695.42,1021.35C6670.22,1021.35 6649.76,1043.37 6649.76,1070.5L6649.76,1168.79C6649.76,1195.91 6670.22,1217.93 6695.42,1217.93L7261.02,1217.93C7286.21,1217.93 7306.67,1195.91 7306.67,1168.79L7306.67,1070.5Z" style="fill:rgb(192,206,224);"/>
                </g>
                <g transform="matrix(8.10666e-17,-1.38273,1.22991,7.86563e-17,-25.334,11219.9)">
                    <path d="M7306.67,1070.5C7306.67,1043.37 7286.21,1021.35 7261.02,1021.35L6695.42,1021.35C6670.22,1021.35 6649.76,1043.37 6649.76,1070.5L6649.76,1168.79C6649.76,1195.91 6670.22,1217.93 6695.42,1217.93L7261.02,1217.93C7286.21,1217.93 7306.67,1195.91 7306.67,1168.79L7306.67,1070.5Z" style="fill:white;"/>
                </g>
                <g transform="matrix(7.53105e-17,-1.28455,1.22991,7.86563e-17,37.9104,10664.2)">
                    <g transform="matrix(129.032,0,0,129.032,7384.63,1125.87)">
                    </g>
                    <text x="7023.6px" y="1125.87px" style="font-family:'Lato-Bold', 'Lato', sans-serif;font-weight:700;font-size:129.032px;fill:rgb(131,158,193);">HTML</text>
                </g>
                <g transform="matrix(7.53105e-17,-1.28455,1.22991,7.86563e-17,31.7608,10670.7)">
                    <g transform="matrix(129.032,0,0,129.032,7384.63,1125.87)">
                    </g>
                    <text x="7023.6px" y="1125.87px" style="font-family:'Lato-Bold', 'Lato', sans-serif;font-weight:700;font-size:129.032px;fill:rgb(191,205,223);">HTML</text>
                </g>
            </g>
            <g transform="matrix(1.49897,-2.73691e-48,1.60602e-32,1.43391,-306.245,-385.245)">
                <g transform="matrix(5.42345e-17,-0.925067,1.30975,8.37617e-17,-61.0014,8168.2)">
                    <path d="M6619.61,856.559C6837.32,856.559 7014.07,938.322 7014.07,1039.03C7014.07,1139.74 6835.61,1243.2 6619.61,1221.5C6388.57,1198.29 6217.34,1082.68 6217.34,981.971C6217.34,881.261 6401.9,856.559 6619.61,856.559Z" style="fill:rgb(53,76,106);"/>
                </g>
                <g transform="matrix(5.42345e-17,-0.925067,1.30975,8.37617e-17,-68.3809,8175.91)">
                    <path d="M6619.61,856.559C6837.32,856.559 7014.07,938.322 7014.07,1039.03C7014.07,1139.74 6835.61,1243.2 6619.61,1221.5C6388.57,1198.29 6217.34,1082.68 6217.34,981.971C6217.34,881.261 6401.9,856.559 6619.61,856.559Z" style="fill:rgb(86,124,171);"/>
                </g>
                <g transform="matrix(1.67672e-16,-2.85994,2.73829,1.75121e-16,-1654.33,20396.4)">
                    <g transform="matrix(57.9555,0,0,57.9555,6491.26,1124.56)">
                    </g>
                    <text x="6366.51px" y="1124.56px" style="font-family:'Lato-Bold', 'Lato', sans-serif;font-weight:700;font-size:57.955px;fill:rgb(191,205,223);">L<tspan x="6395.37px " y="1124.56px ">o</tspan>go</text>
                </g>
                <g transform="matrix(1.67672e-16,-2.85994,2.73829,1.75121e-16,-1658.02,20400.2)">
                    <g transform="matrix(57.9555,0,0,57.9555,6491.26,1124.56)">
                    </g>
                    <text x="6366.51px" y="1124.56px" style="font-family:'Lato-Bold', 'Lato', sans-serif;font-weight:700;font-size:57.955px;fill:white;">L<tspan x="6395.37px " y="1124.56px ">o</tspan>go</text>
                </g>
            </g>
            <g transform="matrix(1.49897,-2.73691e-48,1.60602e-32,1.43391,-306.245,-385.245)">
                <g transform="matrix(7.17326e-17,-1.22353,1.22991,7.86563e-17,7.37948,10463.7)">
                    <path d="M7365.82,487.367C7365.82,442.572 7327.64,406.203 7280.61,406.203L6721.61,406.203C6674.58,406.203 6636.4,442.572 6636.4,487.367L6636.4,649.694C6636.4,694.49 6674.58,730.858 6721.61,730.858L7280.61,730.858C7327.64,730.858 7365.82,694.49 7365.82,649.694L7365.82,487.367Z" style="fill:rgb(210,221,233);"/>
                </g>
                <g transform="matrix(7.17326e-17,-1.22353,1.22991,7.86563e-17,-2.01216e-12,10471.4)">
                    <path d="M7365.82,487.367C7365.82,442.572 7327.64,406.203 7280.61,406.203L6721.61,406.203C6674.58,406.203 6636.4,442.572 6636.4,487.367L6636.4,649.694C6636.4,694.49 6674.58,730.858 6721.61,730.858L7280.61,730.858C7327.64,730.858 7365.82,694.49 7365.82,649.694L7365.82,487.367Z" style="fill:white;"/>
                </g>
                <g transform="matrix(1.07192e-16,-1.82835,1.75058,1.11954e-16,-182.306,14429)">
                    <g transform="matrix(164.836,0,0,164.836,7022.22,573.401)">
                    </g>
                    <text x="6790.3px" y="573.401px" style="font-family:'Lato-Bold', 'Lato', sans-serif;font-weight:700;font-size:164.836px;fill:rgb(79,131,195);">UX</text>
                </g>
                <g transform="matrix(1.07192e-16,-1.82835,1.75058,1.11954e-16,-189.686,14436.7)">
                    <g transform="matrix(164.836,0,0,164.836,7022.22,573.401)">
                    </g>
                    <text x="6790.3px" y="573.401px" style="font-family:'Lato-Bold', 'Lato', sans-serif;font-weight:700;font-size:164.836px;fill:rgb(147,179,218);">UX</text>
                </g>
            </g>
            <g transform="matrix(1.49897,-2.73691e-48,1.60602e-32,1.43391,-306.245,-385.245)">
                <g transform="matrix(6.66672e-16,-11.3713,18.7669,1.20019e-15,-17363.8,78608.8)">
                    <path d="M6800.8,978.35C6800.8,975.687 6797.07,973.525 6792.48,973.525L6697.04,973.525C6692.45,973.525 6688.72,975.687 6688.72,978.35L6688.72,988.001C6688.72,990.664 6692.45,992.826 6697.04,992.826L6792.48,992.826C6797.07,992.826 6800.8,990.664 6800.8,988.001L6800.8,978.35Z" style="fill:rgb(9,21,37);"/>
                </g>
                <g transform="matrix(6.66672e-16,-11.3713,18.7669,1.20019e-15,-17371.2,78616.5)">
                    <path d="M6800.8,978.35C6800.8,975.687 6797.07,973.525 6792.48,973.525L6697.04,973.525C6692.45,973.525 6688.72,975.687 6688.72,978.35L6688.72,988.001C6688.72,990.664 6692.45,992.826 6697.04,992.826L6792.48,992.826C6797.07,992.826 6800.8,990.664 6800.8,988.001L6800.8,978.35Z" style="fill:rgb(15,36,65);"/>
                </g>
                <g transform="matrix(4.13796e-16,-7.05803,6.7578,4.32179e-16,-4968.41,47948.2)">
                    <g transform="matrix(30,0,0,30,6600.04,904.448)">
                    </g>
                    <text x="6449.17px" y="904.448px" style="font-family:'Lato-Bold', 'Lato', sans-serif;font-weight:700;font-size:30px;fill:rgb(191,205,223);">W<tspan x="6479.95px " y="904.448px ">e</tspan>bdesign</text>
                </g>
                <g transform="matrix(4.13796e-16,-7.05803,6.7578,4.32179e-16,-4975.79,47955.9)">
                    <g transform="matrix(30,0,0,30,6600.04,904.448)">
                    </g>
                    <text x="6449.17px" y="904.448px" style="font-family:'Lato-Bold', 'Lato', sans-serif;font-weight:700;font-size:30px;fill:white;">W<tspan x="6479.95px " y="904.448px ">e</tspan>bdesign</text>
                </g>
            </g>
            <g transform="matrix(1.49897,-3.53486e-32,1.60602e-32,1.43391,-358.892,-382.281)">
                <g transform="matrix(8.64812e-17,-1.47509,1.41235,9.03232e-17,127.759,11038)">
                    <circle cx="5908.19" cy="440.783" r="175.964" style="fill:rgb(108,151,205);"/>
                </g>
                <g transform="matrix(8.64812e-17,-1.47509,1.41235,9.03232e-17,119.285,11046.9)">
                    <circle cx="5908.19" cy="440.783" r="175.964" style="fill:rgb(147,179,218);"/>
                </g>
                <g transform="matrix(8.64812e-17,-1.47509,1.41235,9.03232e-17,-40.3776,11840.9)">
                    <g transform="matrix(164.836,0,0,164.836,6579.99,617.152)">
                    </g>
                    <text x="6324.99px" y="617.152px" style="font-family:'Lato-Bold', 'Lato', sans-serif;font-weight:700;font-size:164.836px;fill:rgb(0,1,2);">&lt;/&gt;</text>
                </g>
                <g transform="matrix(8.64812e-17,-1.47509,1.41235,9.03232e-17,-48.8517,11849.8)">
                    <g transform="matrix(164.836,0,0,164.836,6579.99,617.152)">
                    </g>
                    <text x="6324.99px" y="617.152px" style="font-family:'Lato-Bold', 'Lato', sans-serif;font-weight:700;font-size:164.836px;fill:rgb(15,36,65);">&lt;/&gt;</text>
                </g>
            </g>
            <g transform="matrix(1.4105,-1.99698e-31,-1.39662e-33,1.36946,260.327,-1982.16)">
                <g transform="matrix(8.64812e-17,-1.47509,1.41235,9.03232e-17,127.759,11038)">
                    <circle cx="5908.19" cy="440.783" r="175.964" style="fill:rgb(56,82,113);"/>
                </g>
                <g transform="matrix(8.64812e-17,-1.47509,1.41235,9.03232e-17,119.285,11046.9)">
                    <circle cx="5908.19" cy="440.783" r="175.964" style="fill:rgb(86,124,171);"/>
                </g>
                <g transform="matrix(8.49875e-17,-1.44961,1.39138,8.89826e-17,-31.2444,11618.3)">
                    <g transform="matrix(164.836,0,0,164.836,6496.75,617.152)">
                    </g>
                    <text x="6324.99px" y="617.152px" style="font-family:'Lato-Bold', 'Lato', sans-serif;font-weight:700;font-size:164.836px;fill:rgb(15,36,65);">UI</text>
                </g>
                <g transform="matrix(8.49875e-17,-1.44961,1.39138,8.89826e-17,-38.5143,11625.8)">
                    <g transform="matrix(164.836,0,0,164.836,6496.75,617.152)">
                    </g>
                    <text x="6324.99px" y="617.152px" style="font-family:'Lato-Bold', 'Lato', sans-serif;font-weight:700;font-size:164.836px;fill:white;">UI</text>
                </g>
            </g>
        </g>
    </g>
</svg>
