<?xml version="1.0" encoding="UTF-8" standalone="no"?><!DOCTYPE svg PUBLIC "-//W3C//DTD SVG 1.1//EN" "http://www.w3.org/Graphics/SVG/1.1/DTD/svg11.dtd"><svg width="100%" height="100%" viewBox="0 0 2504 3809" version="1.1" xmlns="http://www.w3.org/2000/svg" xmlns:xlink="http://www.w3.org/1999/xlink" xml:space="preserve" xmlns:serif="http://www.serif.com/" style="fill-rule:evenodd;clip-rule:evenodd;stroke-linejoin:round;stroke-miterlimit:2;"><g id="Persoon-sam" serif:id="Persoon sam"></g><rect id="Artboard6" x="0" y="0" width="2503.14" height="3808.3" style="fill:none;"/><g><g id="Persoon-sam1" serif:id="Persoon sam"><rect x="1098.91" y="977.058" width="218.922" height="295.783" style="fill:#efaa88;"/><path d="M1323.07,977.058l-224.158,0l-0,60.708c-0,0 60.508,38.818 114.697,38.86c62.3,0.048 104.225,-30.093 104.225,-30.093l5.236,-69.475Z" style="fill:#4b200a;fill-opacity:0.23;"/><path d="M1211.82,435.182c176.145,-6.564 253.278,65.581 253.278,269.412c0,203.831 -98.947,355.232 -253.278,359.631c-125.089,3.566 -246.012,-171.991 -246.012,-375.822c0,-203.831 98.968,-247.742 246.012,-253.221Z" style="fill:#efaa88;"/><clipPath id="_clip1"><path d="M1211.82,435.182c176.145,-6.564 253.278,65.581 253.278,269.412c0,203.831 -98.947,355.232 -253.278,359.631c-125.089,3.566 -246.012,-171.991 -246.012,-375.822c0,-203.831 98.968,-247.742 246.012,-253.221Z"/></clipPath><g clip-path="url(#_clip1)"><rect x="911.466" y="485.645" width="105.204" height="151.961" style="fill:#5f2702;"/><rect x="1425.8" y="485.645" width="105.204" height="151.961" style="fill:#5f2702;"/><ellipse cx="1313.4" cy="718.586" rx="24.239" ry="24.739" style="fill:#fff;"/><ellipse cx="1132.42" cy="718.586" rx="24.239" ry="24.739" style="fill:#fff;"/><ellipse cx="1320.25" cy="722.372" rx="6.843" ry="5.926"/><ellipse cx="1136.79" cy="722.372" rx="6.843" ry="5.926"/></g><circle cx="2169.66" cy="837.652" r="88.338" style="fill:#efaa88;"/><circle cx="770.536" cy="2312.28" r="88.338" style="fill:#efaa88;"/><rect x="1264.78" y="2260.48" width="230.039" height="1126.79" style="fill:#152805;"/><path d="M1152.58,571.625c-16.714,27.341 -50.091,22.36 -83.327,22.36c-40.241,-0 -80.303,-24.592 -96.247,-61.021c-4.61,-10.532 -7.204,-22.052 -7.204,-34.254c0,-54.409 53.193,-115.577 105.027,-113.468c40.648,1.654 57.193,9.99 57.193,9.99c0,-0 31.423,-46.331 139.536,-55.31c54.317,-4.511 109.519,15.294 142.445,40.38c38.631,29.433 54.915,46.001 80.847,63.263c40.305,26.828 83.353,19.533 83.353,19.533c-12.426,29.365 -39.919,51.292 -82.131,65.954l-1.449,-0.441c0.405,0.29 0.617,0.441 0.617,0.441c14.551,11.667 31.398,16.107 49.453,16.745c-12.425,29.364 -49.86,53.612 -82.787,62.509c-121.685,32.878 -217.385,35.686 -305.326,-36.681Z" style="fill:#682b02;"/><path d="M1114.88,903.577c67.603,21.853 136.543,23.034 207.262,-0c0,-0 -46.435,40.182 -103.631,40.182c-57.195,-0 -103.631,-40.182 -103.631,-40.182Z" style="fill:#fff;"/><path d="M907.964,2260.48l586.853,-0c0,-0 -6.978,364.742 0.42,544.825c8.265,201.182 -0.42,581.962 -0.42,581.962c-140.996,-13.777 -167.788,-25.315 -230.038,65.286c-0,0 -8.627,-868.685 -23.593,-1082.25c-1.186,-16.932 -11.5,-40.19 -38.154,-41.272c-28.796,-1.168 -37.483,21.949 -38.584,41.272c-12.186,213.695 -26.296,1082.25 -26.296,1082.25c-49.156,-94.194 -120.282,-74.608 -245.445,-56.131c0,-0 21.211,-387.563 28.17,-591.117c6.21,-181.609 -12.913,-544.825 -12.913,-544.825Z" style="fill:#656565;"/><path d="M1418.26,3322.24c-92.136,4.508 -153.476,130.314 -153.476,130.314l309.962,0c-0,0 -13.322,-137.318 -156.486,-130.314Z" style="fill:#cfcfcf;"/><clipPath id="_clip2"><path d="M1418.26,3322.24c-92.136,4.508 -153.476,130.314 -153.476,130.314l309.962,0c-0,0 -13.322,-137.318 -156.486,-130.314Z"/></clipPath><g clip-path="url(#_clip2)"><path d="M1443.07,3338.14c-77.525,3.958 -129.139,114.413 -129.139,114.413l260.81,0c-0,0 -11.209,-120.563 -131.671,-114.413Z" style="fill:#f1f3f3;"/></g><path d="M984.676,3322.24c92.135,4.508 153.476,130.314 153.476,130.314l-309.962,0c-0,0 13.321,-137.318 156.486,-130.314Z" style="fill:#cfcfcf;"/><clipPath id="_clip3"><path d="M984.676,3322.24c92.135,4.508 153.476,130.314 153.476,130.314l-309.962,0c-0,0 13.321,-137.318 156.486,-130.314Z"/></clipPath><g clip-path="url(#_clip3)"><path d="M959.861,3338.14c77.525,3.958 129.138,114.413 129.138,114.413l-260.809,0c-0,0 11.209,-120.563 131.671,-114.413Z" style="fill:#f1f3f3;"/></g></g><path d="M1418.11,1124.95c28.17,-0.82 55.87,-9.255 82.763,-17.274c58.653,-17.489 175.922,-65.09 301.409,-135.165c184.149,-102.833 297.904,-189.282 297.904,-189.282c-9.518,62.633 39.738,123.664 90.086,140.246c-13.453,9.168 -136.756,147.578 -288.726,238.286c-145.467,86.825 -256.021,131.029 -338.583,177.09c-16.885,9.42 -47.829,34.579 -49.817,60.535c-16.775,218.928 -18.088,861.425 -18.088,861.425c-178.805,23.49 -379.161,17.35 -587.669,-0l3.159,-873.318l-57.662,891.686l-170.684,10.503c0,0 17.664,-704.316 21.234,-902.001c3.013,-166.854 79.343,-262.731 203.953,-262.731c-0,-0 411.807,2.879 510.721,-0Z" style="fill:#567cab;"/></g></svg>