<?xml version="1.0" encoding="UTF-8" standalone="no"?>
<!DOCTYPE svg PUBLIC "-//W3C//DTD SVG 1.1//EN" "http://www.w3.org/Graphics/SVG/1.1/DTD/svg11.dtd">
<svg width="100%" height="100%" viewBox="0 0 941 672" version="1.1" xmlns="http://www.w3.org/2000/svg" xmlns:xlink="http://www.w3.org/1999/xlink" xml:space="preserve" xmlns:serif="http://www.serif.com/" style="fill-rule:evenodd;clip-rule:evenodd;stroke-linejoin:round;stroke-miterlimit:2;">
    <g transform="matrix(0.489897,0,0,1,580.541,997.546)">
        <rect id="Artboard9" x="-1185.03" y="-997.546" width="1920" height="671.66" style="fill:none;"/>
        <clipPath id="_clip1">
            <rect id="Artboard91" serif:id="Artboard9" x="-1185.03" y="-997.546" width="1920" height="671.66"/>
        </clipPath>
        <g clip-path="url(#_clip1)">
            <g transform="matrix(6.49792,-2.92705e-32,-3.92016e-32,0.608946,-6427.44,-1342.78)">
                <rect x="842.827" y="661.133" width="365.821" height="215.43" style="fill:rgb(40,151,235);"/>
            </g>
            <g transform="matrix(6.99182,-6.13057e-32,-3.55645e-32,0.749763,-6621.68,-1188.95)">
                <rect x="842.827" y="661.133" width="365.821" height="215.43" style="fill:rgb(5,53,88);"/>
            </g>
            <g transform="matrix(6.82808,-6.15623e-32,-1.03391e-32,0.543609,-6230.78,-1169.76)">
                <rect x="842.827" y="661.133" width="365.821" height="215.43" style="fill:rgb(17,117,183);"/>
            </g>
            <g transform="matrix(6.68385,-9.2126e-32,-4.5098e-32,0.63094,-6543.35,-948.868)">
                <rect x="842.827" y="661.133" width="365.821" height="215.43" style="fill:rgb(77,174,238);"/>
            </g>
            <g transform="matrix(2.04125,-2.46519e-32,-8.28553e-33,1,-3353.27,-1193.64)">
                <g transform="matrix(60.1976,0,0,60.1976,1930.8,753.311)">
                </g>
                <text x="1242.08px" y="753.311px" style="font-family:'Montserrat-Bold', 'Montserrat';font-weight:700;font-size:60.198px;fill:white;">F<tspan x="1279.7px 1319.13px 1344.29px " y="753.311px 753.311px 753.311px ">oto</tspan> en video editin<tspan x="1871.62px " y="753.311px ">g</tspan></text>
            </g>
            <g transform="matrix(2.04125,-2.46519e-32,-8.28553e-33,1,-3254.04,-1095.3)">
                <g transform="matrix(60.1976,0,0,60.1976,1815.01,359.985)">
                </g>
                <text x="1386.47px" y="359.985px" style="font-family:'Montserrat-Bold', 'Montserrat';font-weight:700;font-size:60.198px;fill:white;">De<tspan x="1473.57px 1508.67px " y="359.985px 359.985px ">ve</tspan>lopm<tspan x="1709.25px " y="359.985px ">e</tspan>nt</text>
            </g>
            <g transform="matrix(2.04125,-2.46519e-32,-8.28553e-33,1,-3468.02,-954.87)">
                <g transform="matrix(60.1976,0,0,60.1976,1942.81,359.985)">
                </g>
                <text x="1386.47px" y="359.985px" style="font-family:'Montserrat-Bold', 'Montserrat';font-weight:700;font-size:60.198px;fill:white;">Onlin<tspan x="1557.07px " y="359.985px ">e</tspan> mar<tspan x="1738.08px 1776.43px " y="359.985px 359.985px ">ke</tspan>tin<tspan x="1900.67px " y="359.985px ">g</tspan></text>
            </g>
            <g transform="matrix(2.04125,-2.46519e-32,-8.28553e-33,1,-3677.81,-1216.97)">
                <g transform="matrix(60.1976,0,0,60.1976,1746.15,359.985)">
                </g>
                <text x="1386.47px" y="359.985px" style="font-family:'Montserrat-Bold', 'Montserrat';font-weight:700;font-size:60.198px;fill:white;">W<tspan x="1453.16px " y="359.985px ">e</tspan>bdesign</text>
            </g>
        </g>
    </g>
</svg>
