<?xml version="1.0" encoding="UTF-8" standalone="no"?>
<!DOCTYPE svg PUBLIC "-//W3C//DTD SVG 1.1//EN" "http://www.w3.org/Graphics/SVG/1.1/DTD/svg11.dtd">
<svg width="100%" height="100%" viewBox="0 0 2151 304" version="1.1" xmlns="http://www.w3.org/2000/svg" xmlns:xlink="http://www.w3.org/1999/xlink" xml:space="preserve" xmlns:serif="http://www.serif.com/" style="fill-rule:evenodd;clip-rule:evenodd;stroke-linejoin:round;stroke-miterlimit:2;">
    <g transform="matrix(1,0,0,1,-1353.52,-3891.23)">
        <g transform="matrix(0.950273,0,0,0.639037,593.352,1342.04)">
            <rect id="Artboard7" x="799.947" y="3989.12" width="2263.27" height="474.956" style="fill:none;"/>
            <clipPath id="_clip1">
                <rect id="Artboard71" serif:id="Artboard7" x="799.947" y="3989.12" width="2263.27" height="474.956"/>
            </clipPath>
            <g clip-path="url(#_clip1)">
                <g transform="matrix(-0.935404,-1.70346e-16,1.19251e-16,-1.44802,2972.76,4681.19)">
                    <g transform="matrix(-1.125,1.32346e-16,-1.37773e-16,-1.08068,2152.5,3973.53)">
                        <path d="M2101.27,3268.96C2101.27,3268.96 1798.51,3383.47 1458.23,3393.67C1404.13,3395.3 944.171,3395.67 790.442,3388.07C643.534,3380.81 502.835,3361.35 337.797,3361.35C20.763,3361.35 -162.004,3324.39 -162.004,3324.39L-159.284,3807.44L2061.67,3807.44L2101.27,3268.96Z" style="fill:rgb(101,188,247);"/>
                    </g>
                    <g transform="matrix(-1.125,1.32346e-16,-1.37773e-16,-1.08068,2152.5,3973.53)">
                        <path d="M2084.36,3343.91C2084.36,3343.91 2042.39,3413.71 1847.61,3421.89C1708.02,3427.76 1432.06,3336.5 1294,3370.24C1039.69,3432.38 615.862,3480.96 302.396,3410.14C-11.656,3339.19 -169.554,3439.56 -159.284,3416.86L-159.284,3807.44L2061.67,3807.44L2084.36,3343.91Z" style="fill:rgb(9,112,181);"/>
                    </g>
                    <g transform="matrix(-1.125,1.32346e-16,-1.37773e-16,-1.08068,2152.5,3973.53)">
                        <path d="M2049.28,3510.93C2049.28,3510.93 1646.04,3419.77 1305.71,3411.31C1058.93,3405.18 619.188,3479.07 297.435,3479.07C-19.599,3479.07 -159.284,3416.86 -159.284,3416.86L-159.284,3807.44L2061.67,3807.44L2049.28,3510.93Z" style="fill:rgb(13,34,55);"/>
                    </g>
                </g>
            </g>
        </g>
    </g>
</svg>
