<?xml version="1.0" encoding="UTF-8" standalone="no"?>
<!DOCTYPE svg PUBLIC "-//W3C//DTD SVG 1.1//EN" "http://www.w3.org/Graphics/SVG/1.1/DTD/svg11.dtd">
<svg width="100%" height="100%" viewBox="0 0 3840 1717" version="1.1" xmlns="http://www.w3.org/2000/svg" xmlns:xlink="http://www.w3.org/1999/xlink" xml:space="preserve" xmlns:serif="http://www.serif.com/" style="fill-rule:evenodd;clip-rule:evenodd;stroke-linecap:round;stroke-linejoin:round;stroke-miterlimit:1.5;">
    <g id="Artboard1" transform="matrix(1,0,0,0.794624,0,0)">
        <rect x="0" y="0" width="3840" height="2160" style="fill:none;"/>
        <clipPath id="_clip1">
            <rect x="0" y="0" width="3840" height="2160"/>
        </clipPath>
        <g clip-path="url(#_clip1)">
            <g id="achtergrond" transform="matrix(1,0,0,1.25846,0,-217.015)">
                <rect x="0" y="1399.85" width="3840" height="760.149" style="fill:rgb(188,203,204);"/>
                <g transform="matrix(1,0,0,1.84155,0,-2577.89)">
                    <rect x="0" y="1399.85" width="3840" height="760.149" style="fill:rgb(114,133,134);"/>
                </g>
                <g id="storage" transform="matrix(0.395974,0,0,0.395974,1044,1828.8)">
                    <g transform="matrix(4.76421e-19,-0.00778055,1,6.12323e-17,3202.06,-2243.92)">
                        <rect x="533.792" y="-2624.31" width="2438.66" height="1541.04" style="fill:rgb(99,115,116);"/>
                    </g>
                    <g transform="matrix(4.76421e-19,-0.00778055,1,6.12323e-17,3202.06,-1924.21)">
                        <rect x="533.792" y="-2624.31" width="2438.66" height="1541.04" style="fill:rgb(99,115,116);"/>
                    </g>
                    <g transform="matrix(4.76421e-19,-0.00778055,1,6.12323e-17,3202.06,-1604.57)">
                        <rect x="533.792" y="-2624.31" width="2438.66" height="1541.04" style="fill:rgb(99,115,116);"/>
                    </g>
                    <g transform="matrix(4.76421e-19,-0.00778055,1,6.12323e-17,3202.06,-1284.9)">
                        <rect x="533.792" y="-2624.31" width="2438.66" height="1541.04" style="fill:rgb(99,115,116);"/>
                    </g>
                    <path d="M2162.76,-2624.31L2162.76,-1083.27L2118.8,-1083.27L2118.8,-2580.35L577.754,-2580.35L577.754,-1083.27L533.792,-1083.27L533.792,-2624.31L2162.76,-2624.31Z" style="fill:rgb(99,115,116);"/>
                </g>
                <g id="storage1" serif:id="storage" transform="matrix(0.395974,0,0,0.395974,416.7,1828.8)">
                    <g transform="matrix(4.76421e-19,-0.00778055,1,6.12323e-17,3202.06,-2243.92)">
                        <rect x="533.792" y="-2624.31" width="2438.66" height="1541.04" style="fill:rgb(99,115,116);"/>
                    </g>
                    <g transform="matrix(4.76421e-19,-0.00778055,1,6.12323e-17,3202.06,-1924.21)">
                        <rect x="533.792" y="-2624.31" width="2438.66" height="1541.04" style="fill:rgb(99,115,116);"/>
                    </g>
                    <g transform="matrix(4.76421e-19,-0.00778055,1,6.12323e-17,3202.06,-1604.57)">
                        <rect x="533.792" y="-2624.31" width="2438.66" height="1541.04" style="fill:rgb(99,115,116);"/>
                    </g>
                    <g transform="matrix(4.76421e-19,-0.00778055,1,6.12323e-17,3202.06,-1284.9)">
                        <rect x="533.792" y="-2624.31" width="2438.66" height="1541.04" style="fill:rgb(99,115,116);"/>
                    </g>
                    <path d="M2162.76,-2624.31L2162.76,-1083.27L2118.8,-1083.27L2118.8,-2580.35L577.754,-2580.35L577.754,-1083.27L533.792,-1083.27L533.792,-2624.31L2162.76,-2624.31Z" style="fill:rgb(99,115,116);"/>
                </g>
                <g id="storage2" serif:id="storage" transform="matrix(0.395974,0,0,0.395974,-211.367,1828.8)">
                    <g transform="matrix(4.76421e-19,-0.00778055,1,6.12323e-17,3202.06,-2243.92)">
                        <rect x="533.792" y="-2624.31" width="2438.66" height="1541.04" style="fill:rgb(99,115,116);"/>
                    </g>
                    <g transform="matrix(4.76421e-19,-0.00778055,1,6.12323e-17,3202.06,-1924.21)">
                        <rect x="533.792" y="-2624.31" width="2438.66" height="1541.04" style="fill:rgb(99,115,116);"/>
                    </g>
                    <g transform="matrix(4.76421e-19,-0.00778055,1,6.12323e-17,3202.06,-1604.57)">
                        <rect x="533.792" y="-2624.31" width="2438.66" height="1541.04" style="fill:rgb(99,115,116);"/>
                    </g>
                    <g transform="matrix(4.76421e-19,-0.00778055,1,6.12323e-17,3202.06,-1284.9)">
                        <rect x="533.792" y="-2624.31" width="2438.66" height="1541.04" style="fill:rgb(99,115,116);"/>
                    </g>
                    <path d="M2162.76,-2624.31L2162.76,-1083.27L2118.8,-1083.27L2118.8,-2580.35L577.754,-2580.35L577.754,-1083.27L533.792,-1083.27L533.792,-2624.31L2162.76,-2624.31Z" style="fill:rgb(99,115,116);"/>
                </g>
            </g>
            <g id="pressure" transform="matrix(1,0,0,1.25846,0,-217.015)">
                <g transform="matrix(1,0,0,1,-8.66166,33.1434)">
                    <rect x="1755.25" y="1193.76" width="15.75" height="87.36" style="fill:rgb(81,100,98);"/>
                </g>
                <path d="M1795.09,1282.22C1795.09,1278.06 1791.7,1274.67 1787.54,1274.67L1721.39,1274.67C1717.22,1274.67 1713.84,1278.06 1713.84,1282.22C1713.84,1286.39 1717.22,1289.77 1721.39,1289.77L1787.54,1289.77C1791.7,1289.77 1795.09,1286.39 1795.09,1282.22Z" style="fill:rgb(64,80,78);"/>
                <g transform="matrix(1,0,0,1,-0.786431,38.2973)">
                    <ellipse cx="1755.25" cy="1143.62" rx="51.118" ry="50.135" style="fill:rgb(81,100,98);"/>
                </g>
                <g transform="matrix(0.930318,0,0,0.930318,121.523,117.987)">
                    <ellipse cx="1755.25" cy="1143.62" rx="51.118" ry="50.135" style="fill:rgb(156,175,173);"/>
                    <clipPath id="_clip2">
                        <ellipse cx="1755.25" cy="1143.62" rx="51.118" ry="50.135"/>
                    </clipPath>
                    <g clip-path="url(#_clip2)">
                        <g transform="matrix(1.0749,0,0,0.286835,-130.618,762.696)">
                            <rect x="1753.29" y="1150.97" width="2.322" height="30.09" style="fill:rgb(41,51,50);"/>
                        </g>
                        <g transform="matrix(0.76007,-0.76007,0.221507,0.221507,130.312,2186.79)">
                            <rect x="1753.29" y="1150.97" width="2.322" height="30.09" style="fill:rgb(41,51,50);"/>
                        </g>
                        <g transform="matrix(0.76007,-0.76007,0.221507,0.221507,197.117,2252.51)">
                            <rect x="1753.29" y="1150.97" width="2.322" height="30.09" style="fill:rgb(41,51,50);"/>
                        </g>
                        <g transform="matrix(-0.76007,-0.76007,-0.221507,0.221507,3380.69,2186.79)">
                            <rect x="1753.29" y="1150.97" width="2.322" height="30.09" style="fill:rgb(41,51,50);"/>
                        </g>
                        <g transform="matrix(-0.76007,-0.76007,-0.221507,0.221507,3314.98,2252.51)">
                            <rect x="1753.29" y="1150.97" width="2.322" height="30.09" style="fill:rgb(41,51,50);"/>
                        </g>
                        <g transform="matrix(-6.58187e-17,-1.0749,0.286835,-1.75636e-17,1468.63,3029.49)">
                            <rect x="1753.29" y="1150.97" width="2.322" height="30.09" style="fill:rgb(41,51,50);"/>
                        </g>
                        <g transform="matrix(6.58187e-17,-1.0749,-0.286835,-1.75636e-17,2041.96,3029.49)">
                            <rect x="1753.29" y="1150.97" width="2.322" height="30.09" style="fill:rgb(41,51,50);"/>
                        </g>
                        <g transform="matrix(1.0749,0,0,0.286835,-130.618,855.179)">
                            <rect x="1753.29" y="1150.97" width="2.322" height="30.09" style="fill:rgb(41,51,50);"/>
                        </g>
                    </g>
                </g>
                <g transform="matrix(1,0,0,1.14382,0.00696984,-169.003)">
                    <rect x="1753.29" y="1150.97" width="2.322" height="30.09" style="fill:rgb(231,68,68);"/>
                </g>
                <g transform="matrix(0.0497872,0,0,0.0497872,1667.07,1124.98)">
                    <ellipse cx="1755.25" cy="1143.62" rx="51.118" ry="50.135" style="fill:rgb(64,80,78);"/>
                </g>
            </g>
            <g id="garagedeuren" transform="matrix(1,0,0,1.25846,0,-217.015)">
                <g transform="matrix(0.728302,0,0,0.730382,1010.63,377.424)">
                    <rect x="2462.26" y="699.925" width="862.219" height="699.925" style="fill:rgb(72,83,84);"/>
                </g>
                <g transform="matrix(0.728302,0,0,0.730382,215.171,377.424)">
                    <rect x="2462.26" y="699.925" width="862.219" height="699.925" style="fill:rgb(72,83,84);"/>
                </g>
            </g>
            <g id="poot" transform="matrix(0.363564,0,0,0.567015,249.895,856.888)">
                <g transform="matrix(1,0,0,0.858418,0,84.1482)">
                    <rect x="916.594" y="640.879" width="115.695" height="1519.12" style="fill:rgb(154,196,195);"/>
                </g>
                <path d="M1064.73,1925.34C1064.73,1910.1 1052.36,1897.73 1037.12,1897.73L911.759,1897.73C896.524,1897.73 884.154,1910.1 884.154,1925.34L884.154,1951.32L1064.73,1951.32L1064.73,1925.34Z" style="fill:rgb(112,171,170);"/>
                <rect x="916.594" y="1893.26" width="115.695" height="4.479" style="fill:rgb(78,133,132);"/>
            </g>
            <g id="poot1" serif:id="poot" transform="matrix(0.834207,0,0,0.897373,321.281,-132.713)">
                <g transform="matrix(1,0,0,0.858418,0,84.1482)">
                    <rect x="916.594" y="640.879" width="115.695" height="1519.12" style="fill:rgb(126,180,179);"/>
                </g>
                <path d="M1064.73,1925.34C1064.73,1910.1 1052.36,1897.73 1037.12,1897.73L911.759,1897.73C896.524,1897.73 884.154,1910.1 884.154,1925.34L884.154,1951.32L1064.73,1951.32L1064.73,1925.34Z" style="fill:rgb(115,173,172);"/>
                <rect x="916.594" y="1893.26" width="115.695" height="4.479" style="fill:rgb(74,127,126);"/>
            </g>
            <g id="poot2" serif:id="poot" transform="matrix(0.834207,0,0,0.897373,-776.835,-132.713)">
                <g transform="matrix(1,0,0,0.858418,0,84.1482)">
                    <rect x="916.594" y="640.879" width="115.695" height="1519.12" style="fill:rgb(126,180,179);"/>
                </g>
                <path d="M1064.73,1925.34C1064.73,1910.1 1052.36,1897.73 1037.12,1897.73L911.759,1897.73C896.524,1897.73 884.154,1910.1 884.154,1925.34L884.154,1951.32L1064.73,1951.32L1064.73,1925.34Z" style="fill:rgb(126,180,179);"/>
                <rect x="916.594" y="1893.26" width="115.695" height="4.479" style="fill:rgb(126,180,179);"/>
            </g>
            <g transform="matrix(0.834207,0,0,1.04981,203.994,-154.689)">
                <path d="M1360.6,1008.83C1526.17,1008.83 1660.6,1143.2 1660.6,1308.77L1660.6,1478.14L2060.6,1478.14L2060.6,1778.14L1660.6,1778.14C1495.02,1778.14 1360.6,1643.93 1360.6,1478.35L1360.6,1308.83L-244.537,1308.83L-244.537,1008.83L1360.6,1008.83Z" style="fill:rgb(154,196,195);"/>
                <clipPath id="_clip3">
                    <path d="M1360.6,1008.83C1526.17,1008.83 1660.6,1143.2 1660.6,1308.77L1660.6,1478.14L2060.6,1478.14L2060.6,1778.14L1660.6,1778.14C1495.02,1778.14 1360.6,1643.93 1360.6,1478.35L1360.6,1308.83L-244.537,1308.83L-244.537,1008.83L1360.6,1008.83Z"/>
                </clipPath>
                <g clip-path="url(#_clip3)">
                    <g transform="matrix(2.32248,0,0,0.747077,-1472.83,280.03)">
                        <rect x="520" y="1304.65" width="700" height="72.61" style="fill:rgb(95,162,160);"/>
                    </g>
                    <g transform="matrix(1,0,0,0.747077,840.596,749.219)">
                        <rect x="520" y="1304.65" width="700" height="72.61" style="fill:rgb(95,162,160);"/>
                    </g>
                    <g id="streepjes-buis" serif:id="streepjes buis" transform="matrix(1,0,0,1,-87.9726,672.609)">
                        <rect x="842.009" y="336.221" width="32.172" height="301.533" style="fill:rgb(81,139,138);"/>
                        <g transform="matrix(1,0,0,1,87.2215,0)">
                            <rect x="842.009" y="336.221" width="32.172" height="301.533" style="fill:rgb(81,139,138);"/>
                        </g>
                        <g transform="matrix(1,0,0,1,236.041,108.971)">
                            <circle cx="775.494" cy="377.289" r="20.132" style="fill:rgb(81,139,138);"/>
                        </g>
                        <g transform="matrix(1,0,0,1,16.3831,18.2685)">
                            <circle cx="775.494" cy="377.289" r="20.132" style="fill:rgb(81,139,138);"/>
                        </g>
                        <g transform="matrix(1,0,0,1,236.041,18.2685)">
                            <circle cx="775.494" cy="377.289" r="20.132" style="fill:rgb(81,139,138);"/>
                        </g>
                        <g transform="matrix(1,0,0,1,16.3831,108.971)">
                            <circle cx="775.494" cy="377.289" r="20.132" style="fill:rgb(81,139,138);"/>
                        </g>
                        <g transform="matrix(1,0,0,1,16.3831,199.595)">
                            <circle cx="775.494" cy="377.289" r="20.132" style="fill:rgb(81,139,138);"/>
                        </g>
                        <g transform="matrix(1,0,0,1,236.041,199.595)">
                            <circle cx="775.494" cy="377.289" r="20.132" style="fill:rgb(81,139,138);"/>
                        </g>
                    </g>
                    <g id="streepjes-buis1" serif:id="streepjes buis" transform="matrix(1,0,0,1,-955.015,671.195)">
                        <rect x="842.009" y="336.221" width="32.172" height="301.533" style="fill:rgb(81,139,138);"/>
                        <g transform="matrix(1,0,0,1,87.2215,0)">
                            <rect x="842.009" y="336.221" width="32.172" height="301.533" style="fill:rgb(81,139,138);"/>
                        </g>
                        <g transform="matrix(1,0,0,1,236.041,108.971)">
                            <circle cx="775.494" cy="377.289" r="20.132" style="fill:rgb(81,139,138);"/>
                        </g>
                        <g transform="matrix(1,0,0,1,16.3831,18.2685)">
                            <circle cx="775.494" cy="377.289" r="20.132" style="fill:rgb(81,139,138);"/>
                        </g>
                        <g transform="matrix(1,0,0,1,236.041,18.2685)">
                            <circle cx="775.494" cy="377.289" r="20.132" style="fill:rgb(81,139,138);"/>
                        </g>
                        <g transform="matrix(1,0,0,1,16.3831,108.971)">
                            <circle cx="775.494" cy="377.289" r="20.132" style="fill:rgb(81,139,138);"/>
                        </g>
                        <g transform="matrix(1,0,0,1,16.3831,199.595)">
                            <circle cx="775.494" cy="377.289" r="20.132" style="fill:rgb(81,139,138);"/>
                        </g>
                        <g transform="matrix(1,0,0,1,236.041,199.595)">
                            <circle cx="775.494" cy="377.289" r="20.132" style="fill:rgb(81,139,138);"/>
                        </g>
                    </g>
                    <g id="streepjes-buis2" serif:id="streepjes buis" transform="matrix(1,0,0,1,860.931,1140.38)">
                        <g transform="matrix(-1.83697e-16,1,-1,-1.83697e-16,1135.92,-569.863)">
                            <rect x="842.009" y="336.221" width="32.172" height="301.533" style="fill:rgb(81,139,138);"/>
                        </g>
                        <g transform="matrix(1,0,0,1,-14.6109,0)">
                            <rect x="842.009" y="336.221" width="32.172" height="301.533" style="fill:rgb(81,139,138);"/>
                        </g>
                        <g transform="matrix(1,0,0,1,134.209,108.971)">
                            <circle cx="775.494" cy="377.289" r="20.132" style="fill:rgb(81,139,138);"/>
                        </g>
                        <g transform="matrix(-1.83697e-16,1,-1,-1.83697e-16,1117.65,-553.48)">
                            <circle cx="775.494" cy="377.289" r="20.132" style="fill:rgb(81,139,138);"/>
                        </g>
                        <g transform="matrix(1,0,0,1,134.209,18.2685)">
                            <circle cx="775.494" cy="377.289" r="20.132" style="fill:rgb(81,139,138);"/>
                        </g>
                        <g transform="matrix(-1.83697e-16,1,-1,-1.83697e-16,1026.95,-553.48)">
                            <circle cx="775.494" cy="377.289" r="20.132" style="fill:rgb(81,139,138);"/>
                        </g>
                        <g transform="matrix(-1.83697e-16,1,-1,-1.83697e-16,936.321,-553.48)">
                            <circle cx="775.494" cy="377.289" r="20.132" style="fill:rgb(81,139,138);"/>
                        </g>
                        <g transform="matrix(1,0,0,1,134.209,199.595)">
                            <circle cx="775.494" cy="377.289" r="20.132" style="fill:rgb(81,139,138);"/>
                        </g>
                    </g>
                    <g id="streepjes-buis3" serif:id="streepjes buis">
                    </g>
                </g>
            </g>
            <g id="pomp-stuk" serif:id="pomp stuk" transform="matrix(1,0,0,1.25846,0,-217.015)">
                <g transform="matrix(1.05666,0,0,0.96629,-87.482,-292.859)">
                    <path d="M2454.45,1593.19C2454.45,1560.82 2430.42,1534.54 2400.82,1534.54L2036.81,1534.54C2007.21,1534.54 1983.18,1560.82 1983.18,1593.19L1983.18,1894.8C1983.18,1927.17 2007.21,1953.45 2036.81,1953.45L2400.82,1953.45C2430.42,1953.45 2454.45,1927.17 2454.45,1894.8L2454.45,1593.19Z" style="fill:rgb(96,162,160);"/>
                    <clipPath id="_clip4">
                        <path d="M2454.45,1593.19C2454.45,1560.82 2430.42,1534.54 2400.82,1534.54L2036.81,1534.54C2007.21,1534.54 1983.18,1560.82 1983.18,1593.19L1983.18,1894.8C1983.18,1927.17 2007.21,1953.45 2036.81,1953.45L2400.82,1953.45C2430.42,1953.45 2454.45,1927.17 2454.45,1894.8L2454.45,1593.19Z"/>
                    </clipPath>
                    <g clip-path="url(#_clip4)">
                        <g transform="matrix(0.659223,0,0,0.659223,756.12,594.312)">
                            <path d="M2454.45,1593.19C2454.45,1560.82 2430.42,1534.54 2400.82,1534.54L2036.81,1534.54C2007.21,1534.54 1983.18,1560.82 1983.18,1593.19L1983.18,1894.8C1983.18,1927.17 2007.21,1953.45 2036.81,1953.45L2400.82,1953.45C2430.42,1953.45 2454.45,1927.17 2454.45,1894.8L2454.45,1593.19Z" style="fill:rgb(81,139,137);"/>
                        </g>
                        <g transform="matrix(0.672844,0,0,0.735772,699.165,720.876)">
                            <path d="M2386.43,1265.07L2406.68,1276.77L2406.68,1300.15L2386.43,1311.85L2366.17,1300.15L2366.17,1276.77L2386.43,1265.07Z" style="fill:rgb(56,97,96);"/>
                        </g>
                        <g transform="matrix(0.672844,0,0,0.735772,699.165,869.238)">
                            <path d="M2386.43,1265.07L2406.68,1276.77L2406.68,1300.15L2386.43,1311.85L2366.17,1300.15L2366.17,1276.77L2386.43,1265.07Z" style="fill:rgb(56,97,96);"/>
                        </g>
                        <g transform="matrix(0.672844,0,0,0.735772,527.074,720.876)">
                            <path d="M2386.43,1265.07L2406.68,1276.77L2406.68,1300.15L2386.43,1311.85L2366.17,1300.15L2366.17,1276.77L2386.43,1265.07Z" style="fill:rgb(56,97,96);"/>
                        </g>
                        <g transform="matrix(0.672844,0,0,0.735772,527.074,869.238)">
                            <path d="M2386.43,1265.07L2406.68,1276.77L2406.68,1300.15L2386.43,1311.85L2366.17,1300.15L2366.17,1276.77L2386.43,1265.07Z" style="fill:rgb(56,97,96);"/>
                        </g>
                    </g>
                </g>
                <g transform="matrix(0.417104,0,0,0.573525,1747.76,426.036)">
                    <rect x="1817.97" y="1613.5" width="204.054" height="152.726" style="fill:rgb(151,194,193);"/>
                </g>
                <g transform="matrix(2.55402e-17,-0.417104,-0.834207,-5.10805e-17,3666.75,1948.24)">
                    <rect x="1817.97" y="1613.5" width="204.054" height="152.726" style="fill:rgb(151,194,193);"/>
                </g>
                <g transform="matrix(0.417104,0,0,0.834207,1164.68,-9.84478)">
                    <rect x="1817.97" y="1613.5" width="204.054" height="152.726" style="fill:rgb(154,196,195);"/>
                </g>
            </g>
            <g transform="matrix(0.834207,0,0,1.04981,321.281,-229.404)">
                <path d="M2170.5,336.221C2336.07,336.221 2470.5,470.647 2470.5,636.221L2470.5,1336.22L2170.5,1336.22L2170.5,636.221L-385.133,636.221L-385.133,336.221L2170.5,336.221Z" style="fill:rgb(154,196,195);"/>
                <clipPath id="_clip5">
                    <path d="M2170.5,336.221C2336.07,336.221 2470.5,470.647 2470.5,636.221L2470.5,1336.22L2170.5,1336.22L2170.5,636.221L-385.133,636.221L-385.133,336.221L2170.5,336.221Z"/>
                </clipPath>
                <g clip-path="url(#_clip5)">
                    <g transform="matrix(1,0,0,0.747077,1450.5,324.077)">
                        <rect x="520" y="1304.65" width="700" height="72.61" style="fill:rgb(95,162,160);"/>
                    </g>
                    <g transform="matrix(3.6509,0,0,0.747077,-2283.6,-391.165)">
                        <rect x="520" y="1304.65" width="700" height="72.61" style="fill:rgb(95,162,160);"/>
                    </g>
                    <g id="streepjes-buis4" serif:id="streepjes buis" transform="matrix(1,0,0,1,-494.574,0)">
                        <rect x="842.009" y="336.221" width="32.172" height="301.533" style="fill:rgb(81,139,138);"/>
                        <g transform="matrix(1,0,0,1,87.2215,0)">
                            <rect x="842.009" y="336.221" width="32.172" height="301.533" style="fill:rgb(81,139,138);"/>
                        </g>
                        <g transform="matrix(1,0,0,1,236.041,108.971)">
                            <circle cx="775.494" cy="377.289" r="20.132" style="fill:rgb(81,139,138);"/>
                        </g>
                        <g transform="matrix(1,0,0,1,16.3831,18.2685)">
                            <circle cx="775.494" cy="377.289" r="20.132" style="fill:rgb(81,139,138);"/>
                        </g>
                        <g transform="matrix(1,0,0,1,236.041,18.2685)">
                            <circle cx="775.494" cy="377.289" r="20.132" style="fill:rgb(81,139,138);"/>
                        </g>
                        <g transform="matrix(1,0,0,1,16.3831,108.971)">
                            <circle cx="775.494" cy="377.289" r="20.132" style="fill:rgb(81,139,138);"/>
                        </g>
                        <g transform="matrix(1,0,0,1,16.3831,199.595)">
                            <circle cx="775.494" cy="377.289" r="20.132" style="fill:rgb(81,139,138);"/>
                        </g>
                        <g transform="matrix(1,0,0,1,236.041,199.595)">
                            <circle cx="775.494" cy="377.289" r="20.132" style="fill:rgb(81,139,138);"/>
                        </g>
                    </g>
                    <g id="streepjes-buis5" serif:id="streepjes buis" transform="matrix(1,0,0,1,552.953,0)">
                        <rect x="842.009" y="336.221" width="32.172" height="301.533" style="fill:rgb(81,139,138);"/>
                        <g transform="matrix(1,0,0,1,87.2215,0)">
                            <rect x="842.009" y="336.221" width="32.172" height="301.533" style="fill:rgb(81,139,138);"/>
                        </g>
                        <g transform="matrix(1,0,0,1,236.041,108.971)">
                            <circle cx="775.494" cy="377.289" r="20.132" style="fill:rgb(81,139,138);"/>
                        </g>
                        <g transform="matrix(1,0,0,1,16.3831,18.2685)">
                            <circle cx="775.494" cy="377.289" r="20.132" style="fill:rgb(81,139,138);"/>
                        </g>
                        <g transform="matrix(1,0,0,1,236.041,18.2685)">
                            <circle cx="775.494" cy="377.289" r="20.132" style="fill:rgb(81,139,138);"/>
                        </g>
                        <g transform="matrix(1,0,0,1,16.3831,108.971)">
                            <circle cx="775.494" cy="377.289" r="20.132" style="fill:rgb(81,139,138);"/>
                        </g>
                        <g transform="matrix(1,0,0,1,16.3831,199.595)">
                            <circle cx="775.494" cy="377.289" r="20.132" style="fill:rgb(81,139,138);"/>
                        </g>
                        <g transform="matrix(1,0,0,1,236.041,199.595)">
                            <circle cx="775.494" cy="377.289" r="20.132" style="fill:rgb(81,139,138);"/>
                        </g>
                    </g>
                    <g id="streepjes-buis6" serif:id="streepjes buis" transform="matrix(-1,0,0,-1,2968.66,973.975)">
                        <g transform="matrix(-1.83697e-16,1,-1,-1.83697e-16,1135.92,-569.863)">
                            <rect x="842.009" y="336.221" width="32.172" height="301.533" style="fill:rgb(81,139,138);"/>
                        </g>
                        <g transform="matrix(1,0,0,1,-14.6109,0)">
                            <rect x="842.009" y="336.221" width="32.172" height="301.533" style="fill:rgb(81,139,138);"/>
                        </g>
                        <g transform="matrix(1,0,0,1,134.209,108.971)">
                            <circle cx="775.494" cy="377.289" r="20.132" style="fill:rgb(81,139,138);"/>
                        </g>
                        <g transform="matrix(-1.83697e-16,1,-1,-1.83697e-16,1117.65,-553.48)">
                            <circle cx="775.494" cy="377.289" r="20.132" style="fill:rgb(81,139,138);"/>
                        </g>
                        <g transform="matrix(1,0,0,1,134.209,18.2685)">
                            <circle cx="775.494" cy="377.289" r="20.132" style="fill:rgb(81,139,138);"/>
                        </g>
                        <g transform="matrix(-1.83697e-16,1,-1,-1.83697e-16,1026.95,-553.48)">
                            <circle cx="775.494" cy="377.289" r="20.132" style="fill:rgb(81,139,138);"/>
                        </g>
                        <g transform="matrix(-1.83697e-16,1,-1,-1.83697e-16,936.321,-553.48)">
                            <circle cx="775.494" cy="377.289" r="20.132" style="fill:rgb(81,139,138);"/>
                        </g>
                        <g transform="matrix(1,0,0,1,134.209,199.595)">
                            <circle cx="775.494" cy="377.289" r="20.132" style="fill:rgb(81,139,138);"/>
                        </g>
                    </g>
                </g>
            </g>
            <g id="ondergrond-motor" serif:id="ondergrond motor" transform="matrix(1,0,0,1.25846,0,-217.015)">
                <g transform="matrix(0.832012,0,0,0.920064,325.102,-200.605)">
                    <rect x="2008.34" y="1951.32" width="1584.26" height="124.478" style="fill:rgb(110,136,133);"/>
                </g>
                <g transform="matrix(0.9088,0,0,0.920064,110.059,-176.91)">
                    <rect x="2008.34" y="1951.32" width="1584.26" height="124.478" style="fill:rgb(90,112,109);"/>
                </g>
            </g>
            <g id="motor" transform="matrix(0.834207,0,0,0.988434,345.112,-125.682)">
                <g transform="matrix(0.494086,0,0,0.580695,1983.53,700.74)">
                    <path d="M2609.28,1593.92C2609.28,1540.97 2561.71,1497.98 2503.11,1497.98L1540.94,1497.98C1482.35,1497.98 1434.77,1540.97 1434.77,1593.92L1434.77,1785.81C1434.77,1838.76 1482.35,1881.75 1540.94,1881.75L2503.11,1881.75C2561.71,1881.75 2609.28,1838.76 2609.28,1785.81L2609.28,1593.92Z" style="fill:rgb(79,134,133);"/>
                </g>
                <g transform="matrix(0.494086,0,0,0.879941,1990.95,202.883)">
                    <path d="M2609.28,1593.92C2609.28,1540.97 2537.19,1497.98 2448.4,1497.98L1595.65,1497.98C1506.86,1497.98 1434.77,1540.97 1434.77,1593.92L1434.77,1785.81C1434.77,1838.76 1506.86,1881.75 1595.65,1881.75L2448.4,1881.75C2537.19,1881.75 2609.28,1838.76 2609.28,1785.81L2609.28,1593.92Z" style="fill:rgb(87,149,148);"/>
                </g>
                <g transform="matrix(0.58108,0,0,1.15719,1887.28,-265.626)">
                    <path d="M2609.28,1593.92C2609.28,1540.97 2528.67,1497.98 2429.39,1497.98L1614.66,1497.98C1515.38,1497.98 1434.77,1540.97 1434.77,1593.92L1434.77,1785.81C1434.77,1838.76 1515.38,1881.75 1614.66,1881.75L2429.39,1881.75C2528.67,1881.75 2609.28,1838.76 2609.28,1785.81L2609.28,1593.92Z" style="fill:rgb(151,194,193);"/>
                    <clipPath id="_clip6">
                        <path d="M2609.28,1593.92C2609.28,1540.97 2528.67,1497.98 2429.39,1497.98L1614.66,1497.98C1515.38,1497.98 1434.77,1540.97 1434.77,1593.92L1434.77,1785.81C1434.77,1838.76 1515.38,1881.75 1614.66,1881.75L2429.39,1881.75C2528.67,1881.75 2609.28,1838.76 2609.28,1785.81L2609.28,1593.92Z"/>
                    </clipPath>
                    <g clip-path="url(#_clip6)">
                        <g transform="matrix(2.0102,0,0,1.10024,-3822.88,149.694)">
                            <rect x="2595.89" y="1225.45" width="187.112" height="348.805" style="fill:rgb(100,164,163);"/>
                        </g>
                    </g>
                </g>
                <g transform="matrix(1,0,0,0.636362,4.57551,564.776)">
                    <rect x="2912.1" y="1541.87" width="368.058" height="24.159" style="fill:rgb(86,148,146);"/>
                </g>
                <g transform="matrix(1,0,0,0.636362,4.57551,520.719)">
                    <rect x="2912.1" y="1541.87" width="368.058" height="24.159" style="fill:rgb(86,148,146);"/>
                </g>
                <g transform="matrix(1,0,0,0.636362,4.57551,610.166)">
                    <rect x="2912.1" y="1541.87" width="368.058" height="24.159" style="fill:rgb(86,148,146);"/>
                </g>
                <g transform="matrix(1,0,0,0.636362,4.57551,655.555)">
                    <rect x="2912.1" y="1541.87" width="368.058" height="24.159" style="fill:rgb(86,148,146);"/>
                </g>
                <g transform="matrix(1,0,0,0.636362,4.57551,700.846)">
                    <rect x="2912.1" y="1541.87" width="368.058" height="24.159" style="fill:rgb(86,148,146);"/>
                </g>
                <g transform="matrix(1,0,0,0.636362,4.57551,746.601)">
                    <rect x="2912.1" y="1541.87" width="368.058" height="24.159" style="fill:rgb(86,148,146);"/>
                </g>
                <g transform="matrix(1,0,0,0.636362,4.57551,792.356)">
                    <rect x="2912.1" y="1541.87" width="368.058" height="24.159" style="fill:rgb(86,148,146);"/>
                </g>
                <g transform="matrix(1,0,0,0.636362,4.57551,840.543)">
                    <rect x="2912.1" y="1541.87" width="368.058" height="24.159" style="fill:rgb(86,148,146);"/>
                </g>
                <g transform="matrix(1,0,0,0.636362,4.57551,884.727)">
                    <rect x="2912.1" y="1541.87" width="368.058" height="24.159" style="fill:rgb(86,148,146);"/>
                </g>
                <g transform="matrix(1.19874,0,0,1.27318,-411.425,-92.4016)">
                    <path d="M3083.36,1594.74L3083.36,1204.97L3175.69,1204.97C3226.64,1204.97 3268.01,1246.34 3268.01,1297.29L3268.01,1502.41C3268.01,1553.37 3226.64,1594.74 3175.69,1594.74L3083.36,1594.74Z" style="fill:rgb(111,171,170);"/>
                </g>
            </g>
            <g id="persoon-3" serif:id="persoon 3" transform="matrix(1.46758,0,0,1.84689,1391.21,500.085)">
                <g transform="matrix(0.98395,-0.178447,0.178447,0.98395,-49.2884,265.978)">
                    <path d="M1508.59,467.626L1487.45,467.626L1483.99,483.859L1510.35,483.859L1508.59,467.626Z" style="fill:rgb(239,172,139);"/>
                </g>
                <g transform="matrix(-1.43213,0,0,1.43213,3224.6,-1779.21)">
                    <path d="M1176.08,1541.62C1176.09,1541.65 1180.66,1551.71 1184.61,1556.59C1198.28,1573.45 1231.74,1571.76 1230.84,1524.37C1230.67,1515.4 1229.37,1508.15 1227.43,1502.3C1220.55,1481.46 1205.67,1478.4 1205.67,1478.4C1194.73,1478.11 1175.7,1481.44 1169.75,1496.14C1165.52,1506.58 1169.36,1526.06 1176.08,1541.62Z" style="fill:rgb(238,169,135);"/>
                    <clipPath id="_clip7">
                        <path d="M1176.08,1541.62C1176.09,1541.65 1180.66,1551.71 1184.61,1556.59C1198.28,1573.45 1231.74,1571.76 1230.84,1524.37C1230.67,1515.4 1229.37,1508.15 1227.43,1502.3C1220.55,1481.46 1205.67,1478.4 1205.67,1478.4C1194.73,1478.11 1175.7,1481.44 1169.75,1496.14C1165.52,1506.58 1169.36,1526.06 1176.08,1541.62Z"/>
                    </clipPath>
                    <g clip-path="url(#_clip7)">
                        <path d="M1230.1,1520.25C1231,1520.25 1231.74,1521 1231.74,1521.93C1231.74,1522.86 1231,1523.61 1230.1,1523.61C1229.19,1523.61 1228.46,1522.86 1228.46,1521.93C1228.46,1521 1229.19,1520.25 1230.1,1520.25Z" style="fill:rgb(20,52,65);"/>
                        <path d="M1217.43,1520.25C1218.33,1520.25 1219.07,1521 1219.07,1521.93C1219.07,1522.86 1218.33,1523.61 1217.43,1523.61C1216.52,1523.61 1215.79,1522.86 1215.79,1521.93C1215.79,1521 1216.52,1520.25 1217.43,1520.25Z" style="fill:rgb(20,52,65);"/>
                        <path d="M1213.61,1540.51C1216.33,1545.06 1220.42,1545.85 1223.95,1546.01C1227.83,1546.18 1232.45,1545.5 1234.01,1541.15C1227.06,1544.78 1222.47,1544.86 1213.61,1540.51Z" style="fill:rgb(250,226,214);"/>
                        <g transform="matrix(-0.698263,0,0,0.698263,2251.62,1242.36)">
                            <rect x="1464.63" y="378.249" width="89.151" height="2.281" style="fill-opacity:0.16;"/>
                        </g>
                        <g transform="matrix(-0.759809,0,0,0.698263,2411.99,1082.5)">
                            <path d="M1591.29,607.179L1599.47,629.919L1636.32,629.919L1648.03,603.537L1591.29,607.179Z" style="fill:rgb(66,34,8);"/>
                        </g>
                    </g>
                </g>
                <g transform="matrix(1.72801,0,0,1.72801,801.343,-205.86)">
                    <path d="M382.243,338.024L435.435,338.024C435.435,338.024 434.604,310.056 408.284,310.257C384.182,310.44 382.243,338.024 382.243,338.024Z" style="fill:rgb(195,195,195);"/>
                </g>
                <path d="M1455.14,370.98C1472.5,370.784 1553.78,372.718 1553.78,372.718L1553.78,378.249L1450.14,378.249C1449.27,374.553 1452.2,371.013 1455.14,370.98Z" style="fill:rgb(167,167,167);"/>
                <g transform="matrix(1.20094,0,0,1,-413.586,-228.929)">
                    <path d="M1638.19,898.878C1632.76,956.396 1632.07,1011.33 1638.19,1063.08L1605.25,1063.08C1603.82,1035.96 1601.38,1007.58 1601.36,979.051C1601.33,949.006 1605.32,918.201 1606.77,886.683L1638.19,898.878Z" style="fill:rgb(15,36,65);"/>
                </g>
                <g transform="matrix(1.2421,0,0,1,-529.138,-236.315)">
                    <path d="M1638.19,898.878C1632.76,956.396 1632.07,1011.33 1638.19,1063.08L1605.25,1063.08C1603.82,1035.96 1601.38,1007.58 1601.36,979.051C1601.33,949.006 1605.32,918.201 1606.77,886.683L1638.19,898.878Z" style="fill:rgb(15,36,65);"/>
                </g>
                <g transform="matrix(0.909651,0,0,0.910678,114.189,55.352)">
                    <circle cx="1385.03" cy="532.893" r="18.102" style="fill:rgb(236,159,121);"/>
                </g>
                <g transform="matrix(1.82316,0,0,1.82316,736.037,-184.19)">
                    <path d="M399.171,388.116C404.221,384.892 414.054,371.417 414.428,370.966C416.296,368.715 419.015,367.297 422.04,367.297C427.666,367.297 432.235,372.204 432.235,378.249C432.235,379.646 430.276,385.347 425.704,390.627C419.825,397.415 410.575,404.123 405.639,406.613C396.863,411.038 385.572,412.967 376.362,412.967C367.445,412.967 350.376,406.613 350.376,406.613L353.44,389.202C353.44,389.202 368.74,395.446 376.362,395.265C383.984,395.084 392.826,392.166 399.171,388.116Z" style="fill:rgb(82,82,82);"/>
                </g>
                <g transform="matrix(2.18213,0,0,2.18213,593.898,-326.228)">
                    <path d="M403.757,388.339C403.745,387.996 403.739,387.651 403.739,387.305C403.739,387.031 403.743,386.759 403.75,386.487C403.747,385.999 403.744,385.509 403.739,385.019L403.829,385.012C404.726,373.664 412.209,364.795 421.294,364.795C429.601,364.795 436.568,372.21 438.387,382.155C442.437,408.313 439.57,442.733 439.883,456.516C423.448,452.696 406.807,460.45 398.648,448.355C401.259,431.679 403.784,407.124 403.757,388.339Z" style="fill:rgb(0,28,64);"/>
                    <clipPath id="_clip8">
                        <path d="M403.757,388.339C403.745,387.996 403.739,387.651 403.739,387.305C403.739,387.031 403.743,386.759 403.75,386.487C403.747,385.999 403.744,385.509 403.739,385.019L403.829,385.012C404.726,373.664 412.209,364.795 421.294,364.795C429.601,364.795 436.568,372.21 438.387,382.155C442.437,408.313 439.57,442.733 439.883,456.516C423.448,452.696 406.807,460.45 398.648,448.355C401.259,431.679 403.784,407.124 403.757,388.339Z"/>
                    </clipPath>
                    <g clip-path="url(#_clip8)">
                        <g transform="matrix(0.687687,-2.5439e-17,2.5439e-17,0.458268,-671.546,44.589)">
                            <path d="M1572.23,809.853C1572.23,806.828 1570.6,804.372 1568.58,804.372L1561.28,804.372C1559.26,804.372 1557.62,806.828 1557.62,809.853L1557.62,824.864C1557.62,827.889 1559.26,830.344 1561.28,830.344L1568.58,830.344C1570.6,830.344 1572.23,827.889 1572.23,824.864L1572.23,809.853Z" style="fill:rgb(16,76,82);"/>
                        </g>
                        <g transform="matrix(0.687687,-2.08261e-17,2.5439e-17,0.375169,-671.546,113.59)">
                            <rect x="1557.62" y="804.372" width="14.609" height="25.972" style="fill:rgb(25,121,131);"/>
                        </g>
                    </g>
                </g>
                <g transform="matrix(1.64231,-0.54066,0.268432,0.815392,-4517.31,1233.18)">
                    <rect x="3355.7" y="1306.24" width="7.369" height="71.728" style="fill:rgb(30,30,30);"/>
                </g>
                <g transform="matrix(1.64231,-0.54066,0.268432,0.815392,-4519.03,1233.77)">
                    <rect x="3355.7" y="1306.24" width="7.369" height="71.728" style="fill:rgb(57,57,57);"/>
                </g>
                <g transform="matrix(0.909651,0,0,0.910678,124.387,45.83)">
                    <circle cx="1385.03" cy="532.893" r="18.102" style="fill:rgb(238,169,135);"/>
                </g>
                <g transform="matrix(1.82316,0,0,1.82316,746.235,-191.67)">
                    <path d="M399.171,388.116C404.221,384.892 414.054,371.417 414.428,370.966C416.296,368.715 419.015,367.297 422.04,367.297C427.666,367.297 432.235,372.204 432.235,378.249C432.235,379.646 430.276,385.347 425.704,390.627C419.825,397.415 410.964,404.123 406.028,406.613C397.252,411.038 385.572,411.847 376.362,411.847C367.445,411.847 350.376,405.493 350.376,405.493L353.44,389.202C353.44,389.202 368.74,395.446 376.362,395.265C383.984,395.084 392.826,392.166 399.171,388.116Z" style="fill-opacity:0.09;"/>
                </g>
                <g transform="matrix(1.82316,0,0,1.82316,746.235,-193.712)">
                    <path d="M399.171,388.116C404.221,384.892 414.054,371.417 414.428,370.966C416.296,368.715 419.015,367.297 422.04,367.297C427.666,367.297 432.235,372.204 432.235,378.249C432.235,379.646 430.276,385.347 425.704,390.627C419.825,397.415 410.575,404.123 405.639,406.613C396.863,411.038 385.572,412.967 376.362,412.967C367.445,412.967 350.376,406.613 350.376,406.613L353.44,389.202C353.44,389.202 368.74,395.446 376.362,395.265C383.984,395.084 392.826,392.166 399.171,388.116Z" style="fill:rgb(101,101,101);"/>
                </g>
                <g transform="matrix(1.1867,0,0,1.41667,-205.27,-253.735)">
                    <path d="M1411.31,754.638C1427.55,754.638 1437.91,755.043 1443.9,756.774C1446.44,757.51 1443.9,775.891 1443.9,775.891L1414.46,775.891C1398.22,775.891 1385.92,775.886 1385.03,765.745C1384.61,761.028 1395.06,754.638 1411.31,754.638Z" style="fill:rgb(63,63,63);"/>
                </g>
                <g transform="matrix(1.1867,0,0,1.41667,-154.818,-245.771)">
                    <path d="M1411.31,754.638C1427.55,754.638 1437.91,755.043 1443.9,756.774C1446.44,757.51 1443.9,775.891 1443.9,775.891L1414.46,775.891C1398.22,775.891 1385.92,775.886 1385.03,765.745C1384.61,761.028 1395.06,754.638 1411.31,754.638Z" style="fill:rgb(84,84,84);"/>
                </g>
                <g id="facta-icon-witte-f-Vector.eps" serif:id="facta icon witte f Vector.eps" transform="matrix(0.025463,0,0,0.025463,1515.65,494.021)">
                    <g transform="matrix(1,0,0,1,-472.917,-472.917)">
                        <g transform="matrix(4.16667,0,0,4.16667,0,0)">
                            <path d="M62.001,93.226L35.433,93.226C35.433,61.485 61.256,35.662 92.997,35.662L92.997,62.23C75.906,62.23 62.001,76.135 62.001,93.226Z" style="fill:rgb(153,202,60);fill-rule:nonzero;"/>
                            <path d="M133.774,191.567L133.774,164.998C150.866,164.998 164.77,151.094 164.77,134.002L191.338,134.002C191.338,165.744 165.515,191.567 133.774,191.567Z" style="fill:rgb(25,149,162);fill-rule:nonzero;"/>
                            <path d="M106.292,93.307L162.163,93.307L162.163,72.99L106.292,72.99C89.487,72.99 75.816,86.661 75.816,103.464L75.816,174.574L96.134,174.574L96.134,136.479L141.847,136.479L141.847,116.163L96.134,116.163L96.134,103.464L96.133,103.464C96.133,97.864 100.69,93.307 106.292,93.307Z" style="fill:white;fill-rule:nonzero;"/>
                        </g>
                    </g>
                </g>
                <g transform="matrix(1,0,0,1,-79.8874,-230.525)">
                    <ellipse cx="1594.22" cy="629.919" rx="7.447" ry="6.768" style="fill:rgb(237,151,109);"/>
                </g>
                <g transform="matrix(0.867254,0,0,0.867254,130.751,-146.007)">
                    <ellipse cx="1594.22" cy="629.919" rx="7.447" ry="6.768" style="fill:rgb(238,169,135);"/>
                </g>
            </g>
            <g id="persoon-31" serif:id="persoon 3" transform="matrix(1.42076,0,0,1.78796,480.759,602.223)">
                <g transform="matrix(0.98395,-0.178447,0.178447,0.98395,-49.2884,265.978)">
                    <path d="M1508.59,467.626L1487.45,467.626L1483.99,483.859L1510.35,483.859L1508.59,467.626Z" style="fill:rgb(239,172,139);"/>
                </g>
                <g transform="matrix(-1.43213,0,0,1.43213,3224.6,-1779.21)">
                    <path d="M1176.08,1541.62C1176.09,1541.65 1180.66,1551.71 1184.61,1556.59C1198.28,1573.45 1231.74,1571.76 1230.84,1524.37C1230.67,1515.4 1229.37,1508.15 1227.43,1502.3C1220.55,1481.46 1205.67,1478.4 1205.67,1478.4C1194.73,1478.11 1175.7,1481.44 1169.75,1496.14C1165.52,1506.58 1169.36,1526.06 1176.08,1541.62Z" style="fill:rgb(238,169,135);"/>
                    <clipPath id="_clip9">
                        <path d="M1176.08,1541.62C1176.09,1541.65 1180.66,1551.71 1184.61,1556.59C1198.28,1573.45 1231.74,1571.76 1230.84,1524.37C1230.67,1515.4 1229.37,1508.15 1227.43,1502.3C1220.55,1481.46 1205.67,1478.4 1205.67,1478.4C1194.73,1478.11 1175.7,1481.44 1169.75,1496.14C1165.52,1506.58 1169.36,1526.06 1176.08,1541.62Z"/>
                    </clipPath>
                    <g clip-path="url(#_clip9)">
                        <path d="M1230.1,1520.25C1231,1520.25 1231.74,1521 1231.74,1521.93C1231.74,1522.86 1231,1523.61 1230.1,1523.61C1229.19,1523.61 1228.46,1522.86 1228.46,1521.93C1228.46,1521 1229.19,1520.25 1230.1,1520.25Z" style="fill:rgb(20,52,65);"/>
                        <path d="M1217.43,1520.25C1218.33,1520.25 1219.07,1521 1219.07,1521.93C1219.07,1522.86 1218.33,1523.61 1217.43,1523.61C1216.52,1523.61 1215.79,1522.86 1215.79,1521.93C1215.79,1521 1216.52,1520.25 1217.43,1520.25Z" style="fill:rgb(20,52,65);"/>
                        <path d="M1213.61,1540.51C1216.33,1545.06 1220.42,1545.85 1223.95,1546.01C1227.83,1546.18 1232.45,1545.5 1234.01,1541.15C1227.06,1544.78 1222.47,1544.86 1213.61,1540.51Z" style="fill:rgb(250,226,214);"/>
                        <g transform="matrix(-0.698263,0,0,0.698263,2251.62,1242.36)">
                            <rect x="1464.63" y="378.249" width="89.151" height="2.281" style="fill-opacity:0.16;"/>
                        </g>
                    </g>
                </g>
                <g transform="matrix(1.72801,0,0,1.72801,801.343,-205.86)">
                    <path d="M382.243,338.024L435.435,338.024C435.435,338.024 434.604,310.056 408.284,310.257C384.182,310.44 382.243,338.024 382.243,338.024Z" style="fill:rgb(195,195,195);"/>
                </g>
                <path d="M1455.14,370.98C1472.5,370.784 1553.78,372.718 1553.78,372.718L1553.78,378.249L1450.14,378.249C1449.27,374.553 1452.2,371.013 1455.14,370.98Z" style="fill:rgb(167,167,167);"/>
                <g transform="matrix(1.82189,0,0,1.82189,755.248,-164.872)">
                    <path d="M413.405,462.782C411.237,462.724 393.593,462.273 387.615,462.788C383.872,463.11 377.936,463.323 375.382,466.079C372.754,468.916 371.445,474.673 371.207,479.537C370.79,488.01 372.886,516.916 372.886,516.916L360.517,514.987L352.233,508.405C352.233,508.405 349.775,476.337 350.418,467.077C350.96,459.27 353.784,454.561 356.772,450.986C359.761,447.412 365.134,444.729 372.16,442.635C379.686,440.391 401.028,441.001 401.028,441.001L413.495,450.884C413.501,450.324 413.504,450.02 413.504,450.02L421.788,443.439L435.473,440.925C435.473,440.925 435.464,441.281 435.447,441.929C435.297,447.698 434.949,475.764 434.915,483.789C434.894,488.659 434.421,494.299 437.05,497.135C439.603,499.891 447.365,501.307 451.121,501.384C457.905,501.523 475.833,498.79 475.833,498.79L474.42,514.824C474.42,514.824 469.222,517.35 464.995,518.201C458.084,519.593 447.771,520.408 438.865,520.053C431.54,519.761 422.348,518.398 419.359,514.824C416.371,511.25 414.273,504.942 413.731,497.135C413.332,491.396 413.341,474.67 413.405,462.782Z" style="fill:rgb(104,104,104);"/>
                    <clipPath id="_clip10">
                        <path d="M413.405,462.782C411.237,462.724 393.593,462.273 387.615,462.788C383.872,463.11 377.936,463.323 375.382,466.079C372.754,468.916 371.445,474.673 371.207,479.537C370.79,488.01 372.886,516.916 372.886,516.916L360.517,514.987L352.233,508.405C352.233,508.405 349.775,476.337 350.418,467.077C350.96,459.27 353.784,454.561 356.772,450.986C359.761,447.412 365.134,444.729 372.16,442.635C379.686,440.391 401.028,441.001 401.028,441.001L413.495,450.884C413.501,450.324 413.504,450.02 413.504,450.02L421.788,443.439L435.473,440.925C435.473,440.925 435.464,441.281 435.447,441.929C435.297,447.698 434.949,475.764 434.915,483.789C434.894,488.659 434.421,494.299 437.05,497.135C439.603,499.891 447.365,501.307 451.121,501.384C457.905,501.523 475.833,498.79 475.833,498.79L474.42,514.824C474.42,514.824 469.222,517.35 464.995,518.201C458.084,519.593 447.771,520.408 438.865,520.053C431.54,519.761 422.348,518.398 419.359,514.824C416.371,511.25 414.273,504.942 413.731,497.135C413.332,491.396 413.341,474.67 413.405,462.782Z"/>
                    </clipPath>
                    <g clip-path="url(#_clip10)">
                        <g transform="matrix(0.63342,0,0,0.63342,-542.011,30.9556)">
                            <rect x="1507.82" y="647.232" width="99.083" height="125.053" style="fill:rgb(92,92,92);"/>
                        </g>
                    </g>
                </g>
                <g transform="matrix(2.18213,0,0,2.18213,593.898,-326.228)">
                    <path d="M403.757,388.339C403.745,387.996 403.739,387.651 403.739,387.305C403.739,387.031 403.743,386.759 403.75,386.487C403.747,385.999 403.744,385.509 403.739,385.019L403.829,385.012C404.726,373.664 412.209,364.795 421.294,364.795C429.601,364.795 436.568,372.21 438.387,382.155C447.238,406.712 445.548,447.628 438.231,463.955C421.796,460.135 408.047,453.631 399.888,441.536C402.499,424.86 403.784,407.124 403.757,388.339Z" style="fill:rgb(0,28,64);"/>
                </g>
                <g id="sensor" transform="matrix(0.115136,0,0,0.115136,1479.28,210.992)">
                    <g transform="matrix(1,0,0,1,-8.85834,-5.63713)">
                        <circle cx="-3070.36" cy="1822.41" r="168.085" style="fill:rgb(136,170,172);"/>
                    </g>
                    <g transform="matrix(0.943051,0,0,0.943051,-183.713,98.1476)">
                        <circle cx="-3070.36" cy="1822.41" r="168.085" style="fill:rgb(185,205,206);"/>
                    </g>
                </g>
                <g id="Arm">
                    <g id="sensor-1" serif:id="sensor 1" transform="matrix(0.115136,0,0,0.115136,1720.63,312.981)">
                        <g transform="matrix(1,0,0,1,-8.85834,-5.63713)">
                            <circle cx="-3070.36" cy="1822.41" r="168.085" style="fill:rgb(136,170,172);"/>
                        </g>
                        <g transform="matrix(0.943051,0,0,0.943051,-183.713,98.1476)">
                            <circle cx="-3070.36" cy="1822.41" r="168.085" style="fill:rgb(185,205,206);"/>
                        </g>
                        <g transform="matrix(6.11321,0,0,6.11321,-17883.3,-6697.98)">
                            <path d="M2421.66,1392.84C2421.66,1392.84 2409.01,1623.06 2421.79,1675.69C2434.27,1727.13 2498.46,1709.49 2498.46,1709.49" style="fill:none;stroke:rgb(52,74,71);stroke-width:5.94px;"/>
                        </g>
                    </g>
                    <g transform="matrix(0.909651,0,0,0.910678,124.387,45.83)">
                        <circle cx="1385.03" cy="532.893" r="18.102" style="fill:rgb(238,169,135);"/>
                    </g>
                    <g transform="matrix(1.82316,0,0,1.82316,746.235,-193.712)">
                        <path d="M399.171,388.116C404.221,384.892 414.054,371.417 414.428,370.966C416.296,368.715 419.015,367.297 422.04,367.297C427.666,367.297 432.235,372.204 432.235,378.249C432.235,379.646 430.276,385.347 425.704,390.627C419.825,397.415 410.575,404.123 405.639,406.613C396.863,411.038 385.572,412.967 376.362,412.967C367.445,412.967 350.376,406.613 350.376,406.613L353.44,389.202C353.44,389.202 368.74,395.446 376.362,395.265C383.984,395.084 392.826,392.166 399.171,388.116Z" style="fill:rgb(101,101,101);"/>
                    </g>
                    <g id="facta-icon-witte-f-Vector.eps1" serif:id="facta icon witte f Vector.eps" transform="matrix(0.025463,0,0,0.025463,1515.65,494.021)">
                        <g transform="matrix(1,0,0,1,-472.917,-472.917)">
                            <g transform="matrix(4.16667,0,0,4.16667,0,0)">
                                <path d="M62.001,93.226L35.433,93.226C35.433,61.485 61.256,35.662 92.997,35.662L92.997,62.23C75.906,62.23 62.001,76.135 62.001,93.226Z" style="fill:rgb(153,202,60);fill-rule:nonzero;"/>
                                <path d="M133.774,191.567L133.774,164.998C150.866,164.998 164.77,151.094 164.77,134.002L191.338,134.002C191.338,165.744 165.515,191.567 133.774,191.567Z" style="fill:rgb(25,149,162);fill-rule:nonzero;"/>
                                <path d="M106.292,93.307L162.163,93.307L162.163,72.99L106.292,72.99C89.487,72.99 75.816,86.661 75.816,103.464L75.816,174.574L96.134,174.574L96.134,136.479L141.847,136.479L141.847,116.163L96.134,116.163L96.134,103.464L96.133,103.464C96.133,97.864 100.69,93.307 106.292,93.307Z" style="fill:white;fill-rule:nonzero;"/>
                            </g>
                        </g>
                    </g>
                </g>
                <g transform="matrix(1.82316,0,0,1.82316,746.235,-191.67)">
                    <path d="M399.171,388.116C404.221,384.892 414.054,371.417 414.428,370.966C416.296,368.715 419.015,367.297 422.04,367.297C427.666,367.297 432.235,372.204 432.235,378.249C432.235,379.646 430.276,385.347 425.704,390.627C419.825,397.415 410.964,404.123 406.028,406.613C397.252,411.038 385.572,411.847 376.362,411.847C367.445,411.847 350.376,405.493 350.376,405.493L353.44,389.202C353.44,389.202 368.74,395.446 376.362,395.265C383.984,395.084 392.826,392.166 399.171,388.116Z" style="fill-opacity:0.09;"/>
                </g>
                <g transform="matrix(1.1867,0,0,1.41667,-277.407,-316.418)">
                    <path d="M1411.31,754.638C1427.55,754.638 1437.91,755.043 1443.9,756.774C1446.44,757.51 1443.9,775.891 1443.9,775.891L1414.46,775.891C1398.22,775.891 1385.92,775.886 1385.03,765.745C1384.61,761.028 1395.06,754.638 1411.31,754.638Z" style="fill:rgb(63,63,63);"/>
                </g>
                <g transform="matrix(7.26645e-17,-1.1867,1.41667,8.67458e-17,538.04,2455.8)">
                    <path d="M1414.46,750.342C1426.72,756.548 1434.85,757.069 1442.7,756.649C1445.39,756.505 1446.68,773.891 1443.9,775.891C1441.8,777.394 1428.96,778.684 1417.73,775.891C1403.8,772.425 1394.42,762.946 1393.53,752.805C1393.12,748.088 1400.56,743.301 1414.46,750.342Z" style="fill:rgb(63,63,63);"/>
                </g>
            </g>
            <g id="stromend-water" serif:id="stromend water" transform="matrix(1,0,0,1.25846,-568.114,562.329)">
                <g transform="matrix(1.12473,0,0,1.46619,-99.2784,-174.536)">
                    <path d="M1242.49,363.153C1242.49,348.665 1227.15,336.903 1208.27,336.903L920.457,336.903C901.571,336.903 886.238,348.665 886.238,363.153L886.238,415.653C886.238,430.141 901.571,441.903 920.457,441.903L1208.27,441.903C1227.15,441.903 1242.49,430.141 1242.49,415.653L1242.49,363.153Z" style="fill:rgb(74,127,126);"/>
                </g>
                <g id="water" transform="matrix(1.0957,0,0,1.37741,-68.3811,-139.963)">
                    <path d="M1242.49,363.153C1242.49,348.665 1227.7,336.903 1209.49,336.903L919.237,336.903C901.024,336.903 886.238,348.665 886.238,363.153L886.238,415.653C886.238,430.141 901.024,441.903 919.237,441.903L1209.49,441.903C1227.7,441.903 1242.49,430.141 1242.49,415.653L1242.49,363.153Z" style="fill:rgb(131,211,232);"/>
                    <clipPath id="_clip11">
                        <path d="M1242.49,363.153C1242.49,348.665 1227.7,336.903 1209.49,336.903L919.237,336.903C901.024,336.903 886.238,348.665 886.238,363.153L886.238,415.653C886.238,430.141 901.024,441.903 919.237,441.903L1209.49,441.903C1227.7,441.903 1242.49,430.141 1242.49,415.653L1242.49,363.153Z"/>
                    </clipPath>
                    <g clip-path="url(#_clip11)">
                        <g id="bubbles" transform="matrix(0.912659,0,0,0.726001,62.4086,101.614)">
                            <g transform="matrix(1.15379,0,0,1,-150.405,0)">
                                <ellipse cx="974.027" cy="369.226" rx="3.958" ry="3.299" style="fill:rgb(184,235,249);"/>
                            </g>
                            <g transform="matrix(1.15379,0,0,1,-120.428,23.2722)">
                                <ellipse cx="974.027" cy="369.226" rx="3.958" ry="3.299" style="fill:rgb(184,235,249);"/>
                            </g>
                            <g transform="matrix(1.15379,0,0,1,-168.561,38.0496)">
                                <ellipse cx="974.027" cy="369.226" rx="3.958" ry="3.299" style="fill:rgb(184,235,249);"/>
                            </g>
                            <g transform="matrix(1.15379,0,0,1,-124.995,52.827)">
                                <ellipse cx="974.027" cy="369.226" rx="3.958" ry="3.299" style="fill:rgb(184,235,249);"/>
                            </g>
                            <g transform="matrix(1.15379,0,0,1,-74.8295,28.154)">
                                <ellipse cx="974.027" cy="369.226" rx="3.958" ry="3.299" style="fill:rgb(184,235,249);"/>
                            </g>
                            <g transform="matrix(1.15379,0,0,1,-65.6955,-2.93134)">
                                <ellipse cx="974.027" cy="369.226" rx="3.958" ry="3.299" style="fill:rgb(184,235,249);"/>
                            </g>
                            <g transform="matrix(1.15379,0,0,1,-34.7193,33.9858)">
                                <ellipse cx="974.027" cy="369.226" rx="3.958" ry="3.299" style="fill:rgb(184,235,249);"/>
                            </g>
                            <g transform="matrix(1.15379,0,0,1,49.7231,65.9948)">
                                <ellipse cx="974.027" cy="369.226" rx="3.958" ry="3.299" style="fill:rgb(184,235,249);"/>
                            </g>
                            <g transform="matrix(1.15379,0,0,1,81.8112,41.0843)">
                                <ellipse cx="974.027" cy="369.226" rx="3.958" ry="3.299" style="fill:rgb(184,235,249);"/>
                            </g>
                            <g transform="matrix(1.15379,0,0,1,109.755,23.8789)">
                                <ellipse cx="974.027" cy="369.226" rx="3.958" ry="3.299" style="fill:rgb(184,235,249);"/>
                            </g>
                            <g transform="matrix(1.15379,0,0,1,105.188,67.7889)">
                                <ellipse cx="974.027" cy="369.226" rx="3.958" ry="3.299" style="fill:rgb(184,235,249);"/>
                            </g>
                            <g transform="matrix(1.15379,0,0,1,132.631,53.0115)">
                                <ellipse cx="974.027" cy="369.226" rx="3.958" ry="3.299" style="fill:rgb(184,235,249);"/>
                            </g>
                            <g transform="matrix(1.15379,0,0,1,148.253,7.83482)">
                                <ellipse cx="974.027" cy="369.226" rx="3.958" ry="3.299" style="fill:rgb(184,235,249);"/>
                            </g>
                            <g transform="matrix(1.15379,0,0,1,141.765,-23.3031)">
                                <ellipse cx="974.027" cy="369.226" rx="3.958" ry="3.299" style="fill:rgb(184,235,249);"/>
                            </g>
                            <g transform="matrix(1.15379,0,0,1,40.5891,34.4872)">
                                <ellipse cx="974.027" cy="369.226" rx="3.958" ry="3.299" style="fill:rgb(184,235,249);"/>
                            </g>
                            <g transform="matrix(1.15379,0,0,1,9.34543,23.8789)">
                                <ellipse cx="974.027" cy="369.226" rx="3.958" ry="3.299" style="fill:rgb(184,235,249);"/>
                            </g>
                            <g transform="matrix(1.15379,0,0,1,65.4996,7.83482)">
                                <ellipse cx="974.027" cy="369.226" rx="3.958" ry="3.299" style="fill:rgb(184,235,249);"/>
                            </g>
                            <g transform="matrix(1.15379,0,0,1,105.188,-6.09817)">
                                <ellipse cx="974.027" cy="369.226" rx="3.958" ry="3.299" style="fill:rgb(184,235,249);"/>
                            </g>
                            <g transform="matrix(1.15379,0,0,1,-97.9138,76.1279)">
                                <ellipse cx="974.027" cy="369.226" rx="3.958" ry="3.299" style="fill:rgb(184,235,249);"/>
                            </g>
                            <g transform="matrix(1.15379,0,0,1,-28.9631,6.96426)">
                                <ellipse cx="974.027" cy="369.226" rx="3.958" ry="3.299" style="fill:rgb(184,235,249);"/>
                            </g>
                            <g transform="matrix(1.15379,0,0,1,4.8139,56.1256)">
                                <ellipse cx="974.027" cy="369.226" rx="3.958" ry="3.299" style="fill:rgb(184,235,249);"/>
                            </g>
                            <g transform="matrix(1.15379,0,0,1,19.1691,-9.5284)">
                                <ellipse cx="974.027" cy="369.226" rx="3.958" ry="3.299" style="fill:rgb(184,235,249);"/>
                            </g>
                            <g transform="matrix(1.15379,0,0,1,60.9327,-16.706)">
                                <ellipse cx="974.027" cy="369.226" rx="3.958" ry="3.299" style="fill:rgb(184,235,249);"/>
                            </g>
                            <g transform="matrix(1.15379,0,0,1,-25.983,-16.1255)">
                                <ellipse cx="974.027" cy="369.226" rx="3.958" ry="3.299" style="fill:rgb(184,235,249);"/>
                            </g>
                            <g transform="matrix(1.15379,0,0,1,-107.048,-22.7225)">
                                <ellipse cx="974.027" cy="369.226" rx="3.958" ry="3.299" style="fill:rgb(184,235,249);"/>
                            </g>
                            <g transform="matrix(1.15379,0,0,1,-183.046,-19.424)">
                                <ellipse cx="974.027" cy="369.226" rx="3.958" ry="3.299" style="fill:rgb(184,235,249);"/>
                            </g>
                            <g transform="matrix(1.15379,0,0,1,-197.401,13.5613)">
                                <ellipse cx="974.027" cy="369.226" rx="3.958" ry="3.299" style="fill:rgb(184,235,249);"/>
                            </g>
                            <g transform="matrix(1.15379,0,0,1,-187.613,69.2933)">
                                <ellipse cx="974.027" cy="369.226" rx="3.958" ry="3.299" style="fill:rgb(184,235,249);"/>
                            </g>
                            <g transform="matrix(1.15379,0,0,1,-145.392,79.4264)">
                                <ellipse cx="974.027" cy="369.226" rx="3.958" ry="3.299" style="fill:rgb(184,235,249);"/>
                            </g>
                            <g transform="matrix(1.15379,0,0,1,-47.231,59.4241)">
                                <ellipse cx="974.027" cy="369.226" rx="3.958" ry="3.299" style="fill:rgb(184,235,249);"/>
                            </g>
                            <g transform="matrix(1.15379,0,0,1,-83.9634,52.827)">
                                <ellipse cx="974.027" cy="369.226" rx="3.958" ry="3.299" style="fill:rgb(184,235,249);"/>
                            </g>
                            <g transform="matrix(1.15379,0,0,1,-101.696,3.66573)">
                                <ellipse cx="974.027" cy="369.226" rx="3.958" ry="3.299" style="fill:rgb(184,235,249);"/>
                            </g>
                        </g>
                    </g>
                </g>
            </g>
            <g id="koffer" transform="matrix(1.24769,0,0,1.57016,-640.276,-988.259)">
                <g transform="matrix(2.00074,0,0,1.10906,-2631.26,-199.886)">
                    <path d="M2649.39,1796.73L2649.39,1828.86C2649.39,1831.08 2648.39,1832.88 2647.16,1832.88L2611.44,1832.88C2610.22,1832.88 2609.22,1831.08 2609.22,1828.86L2609.22,1796.73C2609.22,1794.51 2610.22,1792.71 2611.44,1792.71L2647.16,1792.71C2648.39,1792.71 2649.39,1794.51 2649.39,1796.73ZM2645.49,1802.55C2645.49,1800.98 2644.78,1799.7 2643.91,1799.7L2615.08,1799.7C2614.21,1799.7 2613.5,1800.98 2613.5,1802.55L2613.5,1825.36C2613.5,1826.93 2614.21,1828.21 2615.08,1828.21L2643.91,1828.21C2644.78,1828.21 2645.49,1826.93 2645.49,1825.36L2645.49,1802.55Z" style="fill:rgb(55,78,74);"/>
                </g>
                <g transform="matrix(0.801481,0,0,0.801481,513.169,491.187)">
                    <path d="M2078.76,1247.94C2078.76,1247.94 2060.86,1501.47 2156.42,1631.01C2244.2,1749.99 2498.46,1790.03 2498.46,1790.03" style="fill:none;stroke:rgb(52,74,71);stroke-width:5.94px;"/>
                </g>
                <g transform="matrix(1,0,0,1.6144,-16.666,-1199.1)">
                    <rect x="2532.3" y="1865.64" width="227.327" height="86.016" style="fill:rgb(77,110,105);"/>
                </g>
                <g transform="matrix(1,0,0,1.01463,-16.666,-54.3448)">
                    <rect x="2532.3" y="1865.64" width="227.327" height="86.016" style="fill:rgb(159,187,183);"/>
                </g>
                <g transform="matrix(0.842105,0,0,0.830508,416.369,318.239)">
                    <path d="M2553.77,1819.89C2553.77,1817.42 2551.8,1815.42 2549.36,1815.42L2528.8,1815.42C2526.37,1815.42 2524.39,1817.42 2524.39,1819.89L2524.39,1841.36C2524.39,1843.83 2526.37,1845.83 2528.8,1845.83L2549.36,1845.83C2551.8,1845.83 2553.77,1843.83 2553.77,1841.36L2553.77,1819.89Z" style="fill:rgb(113,155,149);"/>
                </g>
                <g transform="matrix(0.842105,0,0,0.830508,566.864,318.239)">
                    <path d="M2553.77,1819.89C2553.77,1817.42 2551.8,1815.42 2549.36,1815.42L2528.8,1815.42C2526.37,1815.42 2524.39,1817.42 2524.39,1819.89L2524.39,1841.36C2524.39,1843.83 2526.37,1845.83 2528.8,1845.83L2549.36,1845.83C2551.8,1845.83 2553.77,1843.83 2553.77,1841.36L2553.77,1819.89Z" style="fill:rgb(113,155,149);"/>
                </g>
            </g>
        </g>
    </g>
    <g id="storage3" serif:id="storage">
    </g>
    <g id="motor1" serif:id="motor">
    </g>
</svg>
