<?xml version="1.0" encoding="UTF-8" standalone="no"?>
<!DOCTYPE svg PUBLIC "-//W3C//DTD SVG 1.1//EN" "http://www.w3.org/Graphics/SVG/1.1/DTD/svg11.dtd">
<svg width="100%" height="100%" viewBox="0 0 150 150" version="1.1" xmlns="http://www.w3.org/2000/svg" xmlns:xlink="http://www.w3.org/1999/xlink" xml:space="preserve" xmlns:serif="http://www.serif.com/" style="fill-rule:evenodd;clip-rule:evenodd;stroke-linejoin:round;stroke-miterlimit:2;">
    <g transform="matrix(0.464209,0,0,0.438455,1290.43,45.1759)">
        <rect id="Artboard2" x="-2779.84" y="-103.034" width="323.13" height="342.11" style="fill:none;"/>
        <g id="Artboard21" serif:id="Artboard2">
            <g transform="matrix(1,0,0,1,1.03848,7.25341)">
                <g transform="matrix(0.283332,2.30577e-32,2.09386e-32,0.299974,-2772.31,-101.219)">
                    <path d="M321.762,321.613L220.502,321.613L220.502,290.536C220.502,276.033 219.207,266.796 216.618,262.825C214.028,258.854 209.712,256.869 203.669,256.869C197.108,256.869 192.144,259.547 188.778,264.903C185.411,270.259 183.728,278.38 183.728,289.265C183.728,303.258 185.62,313.796 189.405,320.88C193.02,327.964 203.29,336.509 220.215,346.515C268.749,375.321 299.317,398.96 311.921,417.434C324.524,435.908 330.826,465.69 330.826,506.781C330.826,536.649 327.33,558.662 320.338,572.819C313.345,586.977 299.835,598.846 279.808,608.429C259.78,618.011 236.472,622.802 209.884,622.802C180.706,622.802 155.802,617.277 135.17,606.227C114.538,595.178 101.028,581.107 94.64,564.014C88.252,546.922 85.058,522.664 85.058,491.242L85.058,463.791L186.318,463.791L186.318,514.809C186.318,530.52 187.742,540.62 190.591,545.109C193.439,549.598 198.489,551.842 205.741,551.842C212.992,551.842 218.387,548.994 221.927,543.296C225.466,537.599 227.236,529.139 227.236,517.917C227.236,493.227 223.869,477.085 217.136,469.488C210.23,461.891 193.224,449.202 166.117,431.419C139.011,413.463 121.056,400.428 112.25,392.313C103.445,384.199 96.151,372.976 90.367,358.646C84.583,344.316 81.691,326.015 81.691,303.743C81.691,271.63 85.792,248.15 93.993,233.302C102.194,218.454 115.444,206.843 133.745,198.47C152.046,190.096 174.146,185.909 200.043,185.909C228.358,185.909 252.486,190.485 272.427,199.635C292.368,208.786 305.576,220.31 312.05,234.208C318.525,248.107 321.762,271.717 321.762,305.038L321.762,321.613Z" style="fill:rgb(42,157,244);fill-rule:nonzero;"/>
                </g>
                <g transform="matrix(0.283332,2.30577e-32,2.09386e-32,0.299974,-2772.31,-101.219)">
                    <path d="M455.393,403.449L357.242,403.449L357.242,380.4C357.242,353.812 360.306,333.31 366.435,318.894C372.564,304.477 384.866,291.744 403.339,280.695C421.813,269.645 445.811,264.12 475.335,264.12C510.728,264.12 537.402,270.379 555.358,282.896C573.314,295.413 584.104,310.779 587.73,328.994C591.356,347.208 593.169,384.717 593.169,441.519L593.169,613.997L491.391,613.997L491.391,583.373C485.003,595.652 476.759,604.862 466.659,611.002C456.559,617.142 444.516,620.212 430.532,620.212C412.231,620.212 395.441,615.076 380.161,604.803C364.881,594.53 357.242,572.042 357.242,537.34L357.242,509.111C357.242,483.386 361.299,465.862 369.413,456.539C377.528,447.216 397.642,436.339 429.755,423.908C464.112,410.442 482.5,401.377 484.917,396.716C487.334,392.054 488.542,382.558 488.542,368.228C488.542,350.273 487.204,338.576 484.528,333.137C481.852,327.699 477.406,324.98 471.191,324.98C464.112,324.98 459.71,327.267 457.983,331.842C456.257,336.418 455.393,348.287 455.393,367.452L455.393,403.449ZM488.542,450.583C471.795,462.841 462.084,473.114 459.408,481.401C456.731,489.688 455.393,501.601 455.393,517.14C455.393,534.923 456.559,546.404 458.89,551.583C461.22,556.763 465.839,559.354 472.745,559.354C479.306,559.354 483.579,557.324 485.564,553.267C487.55,549.209 488.542,538.548 488.542,521.283L488.542,450.583Z" style="fill:rgb(42,157,244);fill-rule:nonzero;"/>
                </g>
                <g transform="matrix(0.283332,2.30577e-32,2.09386e-32,0.299974,-2772.31,-101.219)">
                    <path d="M732.498,270.336L730.685,303.031C738.799,290.061 748.468,280.333 759.69,273.848C770.912,267.363 783.688,264.12 798.018,264.12C825.988,264.12 848.001,277.091 864.057,303.031C872.862,290.061 882.79,280.333 893.84,273.848C904.889,267.363 917.147,264.12 930.614,264.12C948.397,264.12 963.116,268.436 974.769,277.069C986.423,285.702 993.891,296.276 997.171,308.794C1000.45,321.311 1002.09,341.64 1002.09,369.782L1002.07,773.539C973.686,730.678 944.615,690.059 900.573,698.435L900.573,389.982C900.573,360.632 899.58,342.46 897.595,335.468C895.609,328.476 890.991,324.98 883.739,324.98C876.316,324.98 871.524,328.433 869.366,335.339C867.208,342.245 866.129,360.459 866.129,389.982L866.129,613.997L764.611,613.997L764.611,395.68C764.611,362.013 763.79,341.813 762.15,335.08C760.51,328.346 755.978,324.98 748.554,324.98C743.893,324.98 739.922,326.749 736.641,330.289C733.361,333.828 731.548,338.144 731.203,343.237C730.857,348.331 730.685,359.164 730.685,375.739L730.685,613.997L629.166,613.997L629.166,270.336L732.498,270.336Z" style="fill:rgb(42,157,244);fill-rule:nonzero;"/>
                </g>
                <g transform="matrix(0.283332,2.30577e-32,2.09386e-32,0.299974,-2772.31,-101.219)">
                    <path d="M226.981,707.067L164.103,707.067L164.103,687.77C164.103,678.764 163.299,673.028 161.691,670.563C160.083,668.097 157.403,666.864 153.651,666.864C149.577,666.864 146.495,668.527 144.404,671.853C142.314,675.179 141.268,680.221 141.268,686.981C141.268,695.669 142.443,702.213 144.794,706.612C147.038,711.011 153.415,716.317 163.925,722.53C194.062,740.417 213.044,755.096 220.87,766.567C228.696,778.038 232.609,796.532 232.609,822.047C232.609,840.594 230.438,854.263 226.096,863.054C221.754,871.845 213.365,879.215 200.929,885.165C188.493,891.116 174.02,894.091 157.51,894.091C139.392,894.091 123.927,890.66 111.116,883.799C98.305,876.937 89.916,868.2 85.949,857.586C81.982,846.973 79.999,831.91 79.999,812.398L79.999,795.352L142.876,795.352L142.876,827.032C142.876,836.788 143.761,843.06 145.53,845.847C147.299,848.635 150.434,850.028 154.937,850.028C159.44,850.028 162.79,848.259 164.988,844.721C167.186,841.184 168.285,835.93 168.285,828.962C168.285,813.631 166.194,803.607 162.013,798.89C157.725,794.173 147.165,786.293 130.332,775.251C113.501,764.101 102.352,756.007 96.884,750.968C91.417,745.93 86.887,738.961 83.296,730.063C79.704,721.165 77.909,709.801 77.909,695.971C77.909,676.03 80.455,661.45 85.547,652.23C90.639,643.01 98.868,635.801 110.232,630.601C121.596,625.402 135.318,622.802 151.399,622.802C168.981,622.802 183.964,625.643 196.346,631.325C208.729,637.007 216.93,644.163 220.95,652.793C224.971,661.423 226.981,676.084 226.981,696.775L226.981,707.067Z" style="fill:rgb(224,234,244);fill-rule:nonzero;"/>
                </g>
                <g transform="matrix(0.283332,2.30577e-32,2.09386e-32,0.299974,-2772.31,-101.219)">
                    <path d="M316.07,675.226L314.944,695.529C319.983,687.475 325.987,681.434 332.955,677.407C339.924,673.38 347.857,671.367 356.755,671.367C374.123,671.367 387.792,679.421 397.762,695.529C403.23,687.475 409.394,681.434 416.256,677.407C423.117,673.38 430.729,671.367 439.091,671.367C450.133,671.367 459.273,674.047 466.509,679.407C473.746,684.768 478.382,691.334 480.419,699.107C482.456,706.879 483.475,719.503 483.475,736.978L483.475,888.623L420.437,888.623L420.437,749.521C420.437,731.296 419.82,720.012 418.587,715.67C417.355,711.328 414.487,709.157 409.984,709.157C405.374,709.157 402.399,711.302 401.059,715.59C399.719,719.878 399.049,731.189 399.049,749.521L399.049,888.623L336.011,888.623L336.011,753.059C336.011,732.153 335.502,719.61 334.483,715.429C333.465,711.248 330.65,709.157 326.04,709.157C323.146,709.157 320.68,710.256 318.643,712.454C316.606,714.652 315.481,717.332 315.266,720.495C315.052,723.657 314.944,730.385 314.944,740.676L314.944,888.623L251.906,888.623L251.906,675.226L316.07,675.226Z" style="fill:rgb(224,234,244);fill-rule:nonzero;"/>
                </g>
                <g transform="matrix(0.283332,2.30577e-32,2.09386e-32,0.299974,-2772.31,-101.219)">
                    <path d="M572.725,628.269L572.725,662.201L505.828,662.201L505.828,628.269L572.725,628.269ZM572.725,675.226L572.725,888.623L505.828,888.623L505.828,675.226L572.725,675.226Z" style="fill:rgb(224,234,244);fill-rule:nonzero;"/>
                </g>
                <g transform="matrix(0.283332,2.30577e-32,2.09386e-32,0.299974,-2772.31,-101.219)">
                    <path d="M662.136,675.226L661.011,694.885C665.728,687.046 671.49,681.166 678.298,677.246C685.105,673.327 692.958,671.367 701.857,671.367C713.006,671.367 722.119,673.993 729.195,679.247C736.27,684.5 740.827,691.12 742.864,699.107C744.9,707.094 745.919,720.414 745.919,739.068L745.919,888.623L680.951,888.623L680.951,740.837C680.951,726.15 680.469,717.198 679.504,713.982C678.539,710.766 675.859,709.157 671.463,709.157C666.853,709.157 663.959,711.007 662.779,714.705C661.6,718.404 661.011,728.294 661.011,744.375L661.011,888.623L596.043,888.623L596.043,675.226L662.136,675.226Z" style="fill:rgb(224,234,244);fill-rule:nonzero;"/>
                </g>
                <g transform="matrix(0.283332,2.30577e-32,2.09386e-32,0.299974,-2772.31,-101.219)">
                    <path d="M835.169,628.269L835.169,662.201L768.272,662.201L768.272,628.269L835.169,628.269ZM835.169,675.226L835.169,888.623L768.272,888.623L768.272,675.226L835.169,675.226Z" style="fill:rgb(224,234,244);fill-rule:nonzero;"/>
                </g>
                <g transform="matrix(0.283332,2.30577e-32,2.09386e-32,0.299974,-2772.31,-101.219)">
                    <path d="M916.54,757.883L855.592,757.883L855.592,743.571C855.592,727.061 857.495,714.33 861.301,705.378C865.107,696.427 872.746,688.52 884.217,681.659C895.688,674.797 910.59,671.367 928.922,671.367C950.9,671.367 967.463,675.253 978.613,683.026C989.763,690.798 996.463,700.34 998.714,711.65C1000.97,722.96 1002.09,746.251 1002.09,781.523L1002.09,888.623L938.893,888.623L938.893,869.607C934.926,877.232 929.807,882.951 923.535,886.764C917.263,890.576 909.786,892.482 901.102,892.482C889.738,892.482 879.312,889.293 869.824,882.914C860.336,876.535 855.592,862.571 855.592,841.023L855.592,823.494C855.592,807.52 858.112,796.639 863.15,790.85C868.189,785.06 880.679,778.306 900.619,770.587C921.954,762.225 933.371,756.597 934.872,753.702C936.373,750.808 937.124,744.911 937.124,736.013C937.124,724.863 936.293,717.6 934.631,714.223C932.969,710.846 930.209,709.157 926.349,709.157C921.954,709.157 919.22,710.578 918.148,713.419C917.076,716.26 916.54,723.63 916.54,735.531L916.54,757.883ZM937.124,787.151C926.725,794.763 920.694,801.142 919.032,806.288C917.371,811.433 916.54,818.831 916.54,828.479C916.54,839.522 917.263,846.651 918.711,849.867C920.158,853.084 923.026,854.692 927.314,854.692C931.388,854.692 934.041,853.432 935.274,850.913C936.507,848.393 937.124,841.773 937.124,831.052L937.124,787.151Z" style="fill:rgb(224,234,244);fill-rule:nonzero;"/>
                </g>
            </g>
        </g>
    </g>
</svg>
