<?xml version="1.0" encoding="UTF-8" standalone="no"?>
<!DOCTYPE svg PUBLIC "-//W3C//DTD SVG 1.1//EN" "http://www.w3.org/Graphics/SVG/1.1/DTD/svg11.dtd">
<svg width="100%" height="100%" viewBox="0 0 760 782" version="1.1" xmlns="http://www.w3.org/2000/svg" xmlns:xlink="http://www.w3.org/1999/xlink" xml:space="preserve" xmlns:serif="http://www.serif.com/" style="fill-rule:evenodd;clip-rule:evenodd;stroke-linejoin:round;stroke-miterlimit:2;">
    <g transform="matrix(1,0,0,1,-4603.73,0)">
        <g transform="matrix(0.395796,0,0,1.16294,5072.76,1160.09)">
            <rect id="Artboard9" x="-1185.03" y="-997.546" width="1920" height="671.66" style="fill:none;"/>
            <g id="Artboard91" serif:id="Artboard9">
                <g transform="matrix(83.0974,0,0,28.2814,-401928,-12066.9)">
                    <g transform="matrix(1,0,0,1,1.1804,-2.61746)">
                        <path d="M4830.29,400.483C4830.29,400.483 4825.69,402.233 4823.64,403.012C4823.06,403.233 4822.68,403.791 4822.68,404.413L4822.68,404.426C4822.68,405.048 4823.06,405.606 4823.64,405.827C4825.69,406.606 4830.29,408.355 4830.29,408.355L4830.29,406.355L4824.96,404.419L4830.29,402.467L4830.29,400.483Z" style="fill:url(#_Linear1);fill-rule:nonzero;"/>
                    </g>
                    <g transform="matrix(1,0,0,1,-1.75061,0)">
                        <path d="M4838.53,400.483L4838.53,402.467L4843.86,404.419L4838.53,406.355L4838.53,408.355C4838.53,408.355 4843.14,406.603 4845.19,405.824C4845.77,405.605 4846.15,405.051 4846.15,404.433L4846.15,404.406C4846.15,403.788 4845.77,403.234 4845.19,403.015C4843.14,402.236 4838.53,400.483 4838.53,400.483Z" style="fill:url(#_Linear2);fill-rule:nonzero;"/>
                    </g>
                    <g transform="matrix(0.807954,0,0,0.807954,928.078,76.7943)">
                        <path d="M4831.27,410.105C4831.15,410.453 4831.2,410.839 4831.41,411.14C4831.63,411.441 4831.98,411.619 4832.34,411.619L4832.51,411.619C4832.78,411.619 4833.02,411.447 4833.11,411.189C4833.79,409.264 4836.54,401.404 4837.71,398.062C4837.83,397.714 4837.78,397.328 4837.57,397.027C4837.35,396.726 4837.01,396.547 4836.64,396.547L4836.48,396.547C4836.2,396.547 4835.96,396.72 4835.87,396.978C4835.19,398.902 4832.44,406.763 4831.27,410.105Z" style="fill:url(#_Linear3);fill-rule:nonzero;"/>
                    </g>
                    <g transform="matrix(1,0,0,1,-1.75061,0)">
                        <path d="M4843.41,406.501L4842.77,404.815L4838.53,406.355L4838.53,408.355L4843.41,406.501Z" style="fill:url(#_Linear4);fill-rule:nonzero;"/>
                    </g>
                </g>
            </g>
        </g>
    </g>
    <defs>
        <linearGradient id="_Linear1" x1="0" y1="0" x2="1" y2="0" gradientUnits="userSpaceOnUse" gradientTransform="matrix(20.541,6.10185,-6.10185,20.541,4822.67,403.101)"><stop offset="0" style="stop-color:rgb(115,195,248);stop-opacity:1"/><stop offset="1" style="stop-color:rgb(0,101,169);stop-opacity:1"/></linearGradient>
        <linearGradient id="_Linear2" x1="0" y1="0" x2="1" y2="0" gradientUnits="userSpaceOnUse" gradientTransform="matrix(20.541,6.10185,-6.10185,20.541,4825.61,400.483)"><stop offset="0" style="stop-color:rgb(115,195,248);stop-opacity:1"/><stop offset="1" style="stop-color:rgb(0,101,169);stop-opacity:1"/></linearGradient>
        <linearGradient id="_Linear3" x1="0" y1="0" x2="1" y2="0" gradientUnits="userSpaceOnUse" gradientTransform="matrix(25.4235,7.55222,-7.55222,25.4235,4821.78,400.628)"><stop offset="0" style="stop-color:rgb(115,195,248);stop-opacity:1"/><stop offset="1" style="stop-color:rgb(0,101,169);stop-opacity:1"/></linearGradient>
        <linearGradient id="_Linear4" x1="0" y1="0" x2="1" y2="0" gradientUnits="userSpaceOnUse" gradientTransform="matrix(20.541,6.10185,-6.10185,20.541,4825.61,400.483)"><stop offset="0" style="stop-color:rgb(115,195,248);stop-opacity:1"/><stop offset="1" style="stop-color:rgb(0,101,169);stop-opacity:1"/></linearGradient>
    </defs>
</svg>
